<svg version="1.1" id="Layer_1" xmlns="http://www.w3.org/2000/svg" xmlns:xlink="http://www.w3.org/1999/xlink" x="0px" y="0px"
	 width="100%" viewBox="0 0 1024 1024" enable-background="new 0 0 1024 1024" xml:space="preserve">
<path fill="#000000" opacity="1.000000" stroke="none" 
	d="
M233.680237,554.661926 
	C235.591507,530.340393 226.777542,509.808746 213.808182,490.642181 
	C204.178070,476.410614 194.686874,462.120941 188.699020,445.867096 
	C176.603455,413.034119 182.722275,382.843994 202.972595,355.298462 
	C218.655792,333.965393 236.550430,314.360718 252.956955,293.565155 
	C263.369415,280.367157 277.111816,271.173492 293.407806,266.323547 
	C301.213745,264.000366 309.102936,261.928741 317.019104,260.009888 
	C336.919586,255.186081 354.500580,245.523285 371.494690,234.490189 
	C394.305450,219.680756 418.774445,208.593475 445.324799,202.329727 
	C472.209198,195.987213 499.525757,193.590958 527.036743,194.851761 
	C572.941650,196.955536 615.788696,209.410339 654.782776,234.277100 
	C668.534729,243.046829 682.241455,252.048492 698.210693,256.521301 
	C705.569519,258.582428 712.921082,260.743225 720.388367,262.329529 
	C747.007507,267.984436 767.479492,282.538879 782.985962,304.623901 
	C793.439209,319.511841 806.102722,332.618408 817.418030,346.814758 
	C827.244934,359.143860 835.571167,372.328979 840.169617,387.577576 
	C847.635498,412.334412 843.884033,435.866119 832.499939,458.616608 
	C825.688232,472.229614 816.601624,484.416534 808.593079,497.277740 
	C797.726868,514.727905 792.160583,533.595459 793.401794,554.188538 
	C793.771729,560.325256 795.059021,566.477783 793.914490,572.564697 
	C791.224792,586.869141 780.158630,595.591064 765.214539,596.350525 
	C751.748840,597.035034 739.538086,593.505066 728.030029,586.856567 
	C726.765625,586.126038 725.701843,584.930664 723.573608,584.966614 
	C724.874023,591.431519 727.406799,597.327576 729.846069,603.240234 
	C736.448059,619.242554 743.738708,635.005981 748.123047,651.816223 
	C756.307678,683.196899 747.918396,710.641663 727.680969,735.096497 
	C716.522339,748.580505 703.276917,759.646057 688.253540,768.573608 
	C685.211914,770.381226 682.312317,772.644836 678.334595,769.369751 
	C676.114807,767.542114 673.826294,770.447571 671.953918,771.931335 
	C659.964478,781.432434 646.744324,788.758484 632.428772,794.039307 
	C617.087769,799.698364 601.083130,802.916016 585.161926,806.434326 
	C563.084106,811.313171 541.983948,818.899536 522.227844,829.978333 
	C517.122498,832.841309 511.983948,833.292664 506.977966,830.550476 
	C479.619049,815.563599 449.816254,808.056458 419.664093,801.455017 
	C395.947327,796.262573 373.988586,787.054016 354.786499,771.841370 
	C352.304962,769.875427 349.599396,767.145996 346.275940,771.014221 
	C345.282196,772.170715 343.718597,771.623047 342.549896,770.932922 
	C311.960022,752.869324 286.882202,729.955139 277.878693,693.975464 
	C272.407013,672.109802 277.308105,651.016052 285.478607,630.597351 
	C290.736359,617.457886 296.667267,604.587219 301.217834,591.165527 
	C301.840912,589.327820 302.310486,587.437988 302.849609,585.577454 
	C300.410339,584.579956 299.280182,586.115662 297.962891,586.935303 
	C286.572327,594.022217 274.198914,597.235046 260.814240,596.227295 
	C241.045898,594.739014 229.681534,579.250061 233.081848,558.576416 
	C233.270721,557.428101 233.469849,556.281555 233.680237,554.661926 
M753.667053,302.812286 
	C744.619812,293.075012 733.271362,287.122772 720.512451,284.459137 
	C692.908569,278.696381 667.616028,268.107086 644.336426,252.029816 
	C627.978943,240.733063 609.907104,232.400650 590.746765,226.752365 
	C575.238098,222.180542 559.392944,219.593658 543.277832,217.978760 
	C520.646912,215.710938 498.121704,215.741547 475.582489,218.485168 
	C439.218323,222.911636 405.908997,235.424133 375.580719,256.046417 
	C357.082672,268.624512 336.882294,277.427368 314.970184,282.305084 
	C305.719238,284.364380 296.517761,286.799072 288.123596,291.468323 
	C278.624512,296.752167 270.976532,304.094452 264.752625,312.916656 
	C250.808731,332.681763 233.658081,349.887115 219.601761,369.549927 
	C209.676605,383.433807 203.334747,398.653503 204.334137,416.080505 
	C205.140289,430.138000 209.825241,443.112457 217.032745,455.113647 
	C224.665787,467.823395 232.787842,480.240356 240.373642,492.977356 
	C252.751236,513.760071 258.574219,536.078674 255.057297,560.357910 
	C253.423965,571.633484 258.721741,576.709473 269.931641,574.298462 
	C286.645203,570.703674 298.863190,560.538818 308.761932,547.206543 
	C321.064484,530.636536 323.706329,511.158508 324.654999,491.397156 
	C325.567413,472.390503 322.765808,453.555054 320.420563,434.761597 
	C317.470123,411.118683 315.394104,387.500000 317.647491,363.666992 
	C319.892914,339.918732 330.085632,320.049896 346.926025,303.467163 
	C349.849121,300.588837 352.951721,297.567413 357.436951,296.476593 
	C357.395203,297.269318 357.474670,297.640198 357.344421,297.909790 
	C356.766144,299.106873 356.129089,300.275604 355.510895,301.453369 
	C345.350311,320.811798 340.669647,341.710144 339.432709,363.278259 
	C337.787750,391.961670 341.419800,420.403290 345.551178,448.706329 
	C348.733032,470.504456 350.737091,492.259033 348.313324,514.253113 
	C347.944794,517.597656 348.367432,520.854370 349.373322,524.107361 
	C351.881195,532.217651 354.375671,540.339111 356.572205,548.537354 
	C363.247009,573.450073 363.685455,598.142883 353.461548,622.362305 
	C352.552368,624.515991 352.082672,627.014526 349.180847,628.270020 
	C347.569550,609.908752 346.878845,591.793640 340.106995,574.604065 
	C336.547455,585.598755 331.898041,595.880371 326.953308,606.058960 
	C319.536621,621.326172 311.447784,636.286133 306.746185,652.765137 
	C300.544952,674.500427 302.383911,695.256592 313.650665,714.939209 
	C318.316406,723.090027 323.574066,730.871643 331.395447,737.536194 
	C332.148926,725.334717 334.175385,714.273743 340.137421,704.170044 
	C341.004028,704.723938 341.447083,704.844666 341.524689,705.083862 
	C341.930115,706.333679 342.288300,707.603149 342.580933,708.884460 
	C348.859222,736.375244 364.036072,756.908936 389.753235,769.179199 
	C400.351685,774.235962 411.705139,776.976318 423.050354,779.624939 
	C452.778503,786.565308 482.149445,794.539856 509.500671,808.541077 
	C512.539001,810.096436 515.136902,809.692444 517.996765,808.210449 
	C531.042297,801.450073 544.717407,796.231201 558.602356,791.458252 
	C577.853333,784.840820 597.875916,781.218323 617.444946,775.843262 
	C652.750000,766.145996 676.286072,745.116455 683.580139,708.134766 
	C683.827148,706.882568 683.625183,705.378235 685.686890,704.604980 
	C692.032898,714.309143 693.302673,725.576233 694.861755,737.642273 
	C710.341797,721.877808 720.879944,704.735474 722.719238,683.284973 
	C724.440430,663.213196 718.258545,644.812134 709.836182,627.003845 
	C702.012390,610.461182 692.938354,594.468567 687.873474,576.718140 
	C687.579163,575.686829 687.384888,574.368225 685.484436,574.199036 
	C679.783020,591.436829 679.123901,609.563232 677.251587,628.776245 
	C675.773560,626.936951 675.288818,626.487976 674.988953,625.938171 
	C664.834961,607.317139 663.093567,587.392944 666.251099,566.851501 
	C668.505920,552.182983 672.564636,537.928528 677.460144,523.930054 
	C678.824402,520.029053 679.146118,516.059143 678.595764,512.108337 
	C676.510681,497.140533 677.639893,482.179565 679.003784,467.301392 
	C681.216309,443.164520 685.364746,419.256042 687.032593,395.015045 
	C688.665771,371.278137 686.411987,348.227753 679.595764,325.528931 
	C676.543152,315.363403 672.313599,305.669037 667.331726,296.168335 
	C669.802979,295.348785 670.845032,297.016144 672.065063,297.917450 
	C697.740479,316.885986 708.503235,343.497345 710.118164,374.289429 
	C711.552307,401.634857 706.832947,428.638611 703.932373,455.711456 
	C701.796082,475.650299 700.838562,495.586884 704.593933,515.326721 
	C708.308838,534.853821 716.991943,551.817139 733.535706,563.955750 
	C740.787720,569.276672 748.704773,572.924744 757.550537,574.500305 
	C766.830627,576.153259 772.004211,571.849426 771.777222,562.552307 
	C771.594604,555.071350 770.616516,547.568542 770.980042,540.123657 
	C771.877563,521.742554 778.436157,505.164093 788.056458,489.612793 
	C796.205872,476.439148 805.148499,463.736511 812.317017,449.977051 
	C818.621582,437.875824 822.898254,424.933777 822.458923,411.262909 
	C821.960571,395.754822 815.973938,381.708313 806.867798,369.249603 
	C790.255432,346.521271 771.161072,325.759186 753.667053,302.812286 
z"/>
<path fill="#000000" opacity="1.000000" stroke="none" 
	d="
M391.657410,510.966614 
	C397.893127,513.059998 399.751862,518.206177 401.112396,523.365295 
	C403.738953,533.325073 405.730560,543.452881 408.382874,553.405090 
	C411.308533,564.383118 415.229095,574.928589 422.455902,584.036255 
	C432.959229,597.273254 446.920319,600.292114 462.710327,598.381348 
	C470.168396,597.478882 476.655365,594.090332 482.917419,590.214050 
	C489.581390,586.088928 496.290253,582.058838 503.730408,579.446655 
	C505.654022,578.771179 506.816803,577.682556 506.796844,575.470520 
	C506.732239,568.306396 506.703278,561.141174 506.750427,553.976990 
	C506.774719,550.282959 504.102722,549.839722 501.443390,549.255920 
	C482.955902,545.197876 468.527893,535.261414 458.333282,519.298828 
	C439.667664,490.072510 451.558563,458.665863 485.156952,450.459930 
	C505.076019,445.595001 525.511719,445.816101 545.405701,451.250092 
	C575.383362,459.438416 585.169006,489.443970 571.479431,514.874390 
	C561.731262,532.983093 546.735474,544.752075 526.481323,549.159546 
	C521.663086,550.208069 519.790527,552.182556 520.174683,557.183228 
	C520.620178,562.981445 520.302612,568.839600 520.279846,574.671570 
	C520.272339,576.606140 520.447998,578.217529 522.749084,578.950623 
	C531.265503,581.664001 538.423889,586.982910 546.088013,591.331116 
	C557.319580,597.703430 569.326172,600.619141 582.098145,598.100464 
	C596.385071,595.283081 605.099792,585.580750 611.267395,573.026306 
	C617.053589,561.247986 620.085693,548.650940 622.697144,535.912903 
	C623.767395,530.691956 624.872437,525.471619 626.901611,520.531555 
	C627.776794,518.400879 628.865051,516.241882 630.328918,514.490723 
	C634.637146,509.337097 639.341736,509.682648 642.831116,515.458557 
	C647.493103,523.175537 647.472900,531.529724 645.674744,540.065491 
	C643.770203,549.105591 640.257019,557.590149 636.141113,565.750610 
	C624.583252,588.666016 616.972778,612.794373 612.158569,637.965942 
	C610.270630,647.837341 606.003845,656.962952 598.582886,664.220093 
	C594.797119,667.922363 595.887573,672.961304 595.420349,677.390198 
	C593.065857,699.707886 584.823242,718.867065 566.738525,732.976135 
	C554.944580,742.177185 541.182007,746.761658 526.573364,747.977966 
	C509.755005,749.378296 492.939850,748.684998 476.982239,742.013611 
	C452.830872,731.916626 439.494843,713.074951 433.816223,688.199829 
	C432.638550,683.041138 431.431824,677.840027 431.404633,672.467102 
	C431.382202,668.040894 428.754150,665.084167 425.984314,661.816162 
	C418.450134,652.927063 415.003723,641.894348 413.108459,630.757507 
	C409.035919,606.826721 400.079773,584.735352 389.795105,563.010803 
	C385.949036,554.886658 382.577484,546.558716 380.525238,537.742676 
	C378.786896,530.275146 379.846924,523.230774 383.112274,516.408325 
	C384.759003,512.967834 387.309357,510.891327 391.657410,510.966614 
M452.266418,659.487793 
	C451.899475,667.666504 452.613831,675.769592 454.343811,683.751831 
	C458.522888,703.034363 468.898224,717.191467 488.275208,723.393921 
	C503.478058,728.260315 518.870667,728.892090 534.450989,724.822021 
	C554.810852,719.503479 567.711182,707.078796 572.876892,686.460022 
	C576.495605,672.015808 575.579041,657.390198 575.670105,642.787903 
	C575.783936,624.533447 572.734070,620.182495 554.711792,617.832764 
	C539.013672,615.786133 524.754028,621.174744 520.138245,638.390015 
	C518.585693,644.180481 517.491394,650.048645 516.127441,655.865967 
	C515.293640,659.422058 516.036194,663.445862 513.493408,666.664001 
	C511.662842,665.542480 511.978943,663.927551 511.741913,662.492920 
	C510.118713,652.667358 508.967163,642.721680 505.104889,633.419617 
	C501.494629,624.724609 494.642090,620.269653 485.502655,619.352783 
	C481.545715,618.955750 477.442535,618.786194 473.532990,619.368042 
	C459.624146,621.437988 451.992981,625.183777 452.252075,642.004395 
	C452.336700,647.499023 452.266327,652.995972 452.266418,659.487793 
M472.861786,508.351532 
	C471.701111,509.138855 469.901855,509.219238 469.680695,511.680695 
	C473.948486,514.806152 478.628906,516.513916 484.214996,515.021973 
	C488.818512,513.792480 492.450348,511.505005 493.699341,506.584015 
	C494.709595,502.603546 494.576996,498.617981 490.341614,496.761139 
	C486.483368,495.069733 483.242798,496.874878 481.105133,500.425934 
	C479.191437,503.604980 476.890656,506.369537 472.861786,508.351532 
M547.247437,515.509277 
	C548.707703,515.198730 550.199524,514.990234 551.619751,514.550415 
	C553.207703,514.058655 554.963562,513.414246 555.374084,511.632629 
	C555.843994,509.593079 554.079590,508.728790 552.611267,508.014801 
	C548.837463,506.179688 546.456848,503.114075 544.524353,499.525940 
	C542.987671,496.672729 540.408875,495.629944 537.359558,496.520111 
	C534.447388,497.370178 533.408997,499.733368 533.210938,502.645660 
	C532.717529,509.899811 537.123718,514.243835 547.247437,515.509277 
z"/>
<path fill="#000000" opacity="1.000000" stroke="none" 
	d="
M643.596191,372.579010 
	C640.835449,371.379181 638.828064,371.430328 637.473999,374.196960 
	C630.366333,388.719086 611.722839,396.123169 593.509583,388.045105 
	C592.354492,387.532776 591.199768,386.641418 589.389038,387.550323 
	C591.872620,397.277527 596.398682,406.325287 600.189392,416.744110 
	C596.381775,415.267395 594.203552,413.000793 591.928345,411.063049 
	C579.347717,400.348938 568.415344,388.218689 562.974792,372.310486 
	C555.455444,350.323792 564.537109,333.935242 585.088806,325.179474 
	C586.131287,324.735321 587.245911,324.198517 588.817017,325.359741 
	C583.158508,335.081543 578.583801,345.306213 578.133118,358.353516 
	C589.327576,338.329987 604.785645,330.661377 625.657654,338.533569 
	C640.757690,344.228760 653.938538,363.364105 652.989563,376.917267 
	C649.874146,375.473572 646.901123,374.095856 643.596191,372.579010 
M618.298401,356.810883 
	C613.974426,360.215973 613.119324,363.050568 615.722961,365.681732 
	C617.648987,367.628174 619.988831,368.228638 622.503174,366.956757 
	C624.780823,365.804596 626.165161,363.759338 625.454407,361.278656 
	C624.586304,358.248596 622.621704,356.059875 618.298401,356.810883 
z"/>
<path fill="#000000" opacity="1.000000" stroke="none" 
	d="
M449.786560,395.747131 
	C442.604034,403.271301 436.019043,410.955109 425.925476,416.581726 
	C428.849182,405.831818 434.791107,397.444489 436.246033,387.044861 
	C431.024567,388.335907 426.494781,390.921661 421.353607,391.270874 
	C407.804291,392.191254 397.273773,386.856171 390.065125,375.548401 
	C387.497314,371.520538 385.208130,370.795105 381.331604,373.237762 
	C379.117371,374.633026 376.641876,375.613647 374.199158,376.822998 
	C372.525848,366.929321 383.885620,345.014099 401.864624,338.112030 
	C414.607361,333.220184 433.423279,333.857391 447.374573,356.657074 
	C448.546967,350.567902 446.906982,345.316254 445.177887,340.060669 
	C443.466553,334.859131 440.746796,330.109375 438.256226,325.140686 
	C441.692352,323.901764 444.009827,325.958313 446.425446,327.178589 
	C463.187683,335.646057 470.141479,352.592896 464.286285,370.453979 
	C461.233765,379.765717 456.089508,387.886169 449.786560,395.747131 
M426.980194,365.232910 
	C428.129395,362.788483 428.294556,360.307770 426.295349,358.318298 
	C423.931976,355.966461 420.963501,355.202393 418.286835,357.588989 
	C415.557159,360.022919 415.413025,363.174530 417.762085,366.020020 
	C420.651917,369.520599 423.691376,369.007996 426.980194,365.232910 
z"/>
<path fill="#000000" opacity="1.000000" stroke="none" 
	d="
M551.864624,695.902100 
	C545.530762,701.494812 540.422668,702.539856 535.361267,699.481079 
	C530.525757,696.559021 528.551208,689.930603 530.367493,682.997559 
	C532.010864,676.724304 534.833679,671.170471 539.940979,666.996033 
	C543.664734,663.952393 547.800049,662.623352 552.480530,664.546692 
	C557.548462,666.629272 559.576050,670.998474 560.163086,675.973999 
	C561.099609,683.910278 557.239502,690.082153 551.864624,695.902100 
z"/>
</svg>