<svg version="1.1" id="Layer_1" xmlns="http://www.w3.org/2000/svg" xmlns:xlink="http://www.w3.org/1999/xlink" x="0px" y="0px"
	 width="100%" viewBox="0 0 1024 1024" enable-background="new 0 0 1024 1024" xml:space="preserve">
<path fill="#000000" opacity="1.000000" stroke="none" 
	d="
M243.603745,589.606445 
	C246.855148,587.018616 249.819077,584.645874 253.378738,581.796326 
	C242.947678,579.218872 238.060287,572.439453 235.868591,562.941223 
	C238.678024,562.278625 240.549103,563.079590 242.173737,564.671997 
	C245.932556,568.356323 250.666870,569.800415 255.698944,570.474060 
	C259.522919,570.986023 263.030823,570.249023 265.676849,567.179443 
	C268.527924,563.872009 267.790558,560.239685 265.998779,556.897278 
	C261.522949,548.547852 254.991882,541.907898 247.723511,535.967468 
	C245.274689,533.966064 242.633072,532.202637 240.135208,530.258972 
	C228.913712,521.527161 221.284012,510.653717 219.910767,495.940704 
	C218.777069,499.072632 219.958374,502.462616 217.853302,506.453430 
	C210.916977,498.191040 204.049744,490.780853 201.638733,480.362610 
	C199.967606,473.141357 199.810913,466.149139 204.204285,459.727509 
	C205.104111,458.412231 205.722397,456.689514 209.047974,456.253723 
	C208.413300,468.943573 211.684906,480.569244 218.654709,491.077423 
	C220.777649,490.006378 220.605515,488.392578 220.834518,486.958405 
	C221.040329,485.669495 220.939438,484.261078 222.260727,483.355377 
	C223.939713,483.699707 223.980362,485.184326 224.231766,486.394440 
	C227.224854,500.801361 235.338394,511.738647 246.719376,520.741638 
	C254.683685,527.041931 262.191467,533.910950 268.906921,541.597900 
	C272.223816,545.394592 274.695190,549.688477 277.087372,554.751770 
	C279.293762,549.207764 275.903656,544.031555 277.413269,538.939941 
	C280.078369,539.595398 280.181061,541.680603 280.578827,543.311890 
	C282.882172,552.757996 284.185974,562.177734 281.644165,571.915955 
	C279.757141,579.145569 278.687256,586.596497 277.437531,593.979919 
	C277.036133,596.351440 276.686066,598.850037 277.974579,602.097290 
	C279.203033,597.023499 279.408081,592.318848 282.921783,588.386292 
	C284.825104,592.084717 283.957001,595.608154 284.190308,598.970947 
	C284.806885,607.859497 287.334015,615.839600 293.791992,622.436646 
	C297.873505,626.606018 302.905090,627.401794 308.649811,627.476807 
	C304.992462,631.476013 296.853790,632.140259 291.887665,628.970215 
	C287.077026,625.899292 282.800323,622.181580 280.420868,616.758179 
	C280.153107,616.147888 280.044312,615.334534 279.582275,614.962524 
	C269.635590,606.954895 271.250580,595.894836 271.590057,585.143311 
	C271.640015,583.560852 272.282898,581.870972 270.801331,579.717834 
	C261.357727,588.454468 251.524918,596.510742 239.328018,602.210876 
	C243.562927,603.732422 247.410172,602.356018 251.831406,603.475891 
	C237.223770,620.755554 224.944275,638.369202 229.047058,663.511963 
	C233.511383,653.839355 238.150604,645.642029 246.612869,639.366760 
	C242.885376,670.487671 243.752319,699.459595 273.450684,720.265442 
	C271.577026,711.567078 267.400970,704.726501 268.255737,696.754333 
	C278.015930,711.995850 294.162598,723.524231 294.668213,743.977112 
	C294.763641,747.836487 294.122955,751.549683 293.788666,755.995728 
	C300.902344,747.883118 301.535919,738.318481 302.260681,728.656982 
	C305.449036,728.718384 306.878815,730.994263 308.600067,732.624146 
	C314.261292,737.984680 317.602325,744.947266 321.490448,751.545898 
	C330.272797,766.450684 341.211182,779.177979 357.538239,786.267029 
	C362.149231,788.269043 367.277893,788.020691 372.028961,789.756714 
	C384.564423,794.337158 399.492157,810.636719 401.627014,822.930847 
	C398.420990,821.358521 396.523468,818.539551 394.115204,816.389526 
	C383.482391,806.896667 370.084900,802.925659 357.306488,797.790955 
	C334.403442,788.588135 317.387787,773.550171 308.679047,749.881653 
	C303.641602,763.965881 294.599579,770.265564 283.004303,767.437622 
	C289.781616,755.337463 286.464020,743.722046 281.343475,732.182495 
	C280.311615,729.857117 278.814392,728.690613 276.260101,728.032227 
	C251.022675,721.527039 234.745956,700.966064 233.558868,673.576111 
	C231.786240,678.453003 232.652252,682.854492 232.160828,687.196350 
	C218.178452,677.087402 207.337646,644.914734 230.860352,610.599609 
	C221.589737,608.190247 212.081207,606.240967 206.033463,596.275330 
	C220.031143,599.562012 232.368469,598.241394 243.603745,589.606445 
z"/>
<path fill="#000000" opacity="1.000000" stroke="none" 
	d="
M537.951050,673.126953 
	C531.019104,668.372070 526.948364,661.744629 523.037964,654.953918 
	C521.874512,652.933594 520.409485,650.841125 518.263977,649.939087 
	C510.259583,646.573792 503.895599,640.415710 495.915741,637.054321 
	C494.494843,636.455811 493.166138,635.638306 492.447937,634.306458 
	C491.112335,631.829834 489.802155,630.597168 486.390442,630.636902 
	C482.481537,630.682495 480.901459,626.659973 480.159882,623.162109 
	C479.357422,619.377075 478.209412,617.055725 473.514435,616.913330 
	C469.824280,616.801392 466.821747,613.453979 467.116974,609.730774 
	C467.612457,603.481995 468.889557,597.228027 471.697235,591.469482 
	C471.872101,591.110840 472.488556,590.967529 473.529877,590.350647 
	C477.714020,599.266357 482.612213,607.616821 491.218597,614.295349 
	C487.672119,615.049438 484.352570,614.548218 484.222412,618.298401 
	C484.105011,621.679993 486.873413,622.622925 489.240143,623.792908 
	C490.270905,624.302551 491.400085,624.694458 492.528503,624.910034 
	C496.164307,625.605042 500.821625,624.665222 499.694000,631.253784 
	C499.325653,633.406006 508.469971,638.906494 510.929413,638.722473 
	C511.836761,638.654602 512.996765,638.178223 512.903442,637.525208 
	C512.195984,632.573364 517.190552,629.415466 516.789673,624.518433 
	C516.600891,622.212463 516.226990,620.664246 514.072449,619.224976 
	C504.638000,612.922791 504.514771,606.145508 506.089142,596.588440 
	C506.454590,594.370178 507.470428,592.894226 510.196686,593.691956 
	C513.067322,594.531982 516.014832,595.106262 518.908386,595.873413 
	C519.517944,596.035095 520.371155,596.405151 520.552551,596.888977 
	C524.380859,607.097290 533.090332,614.939331 534.652832,626.272156 
	C535.239807,630.529114 534.920959,634.884460 536.656067,639.044006 
	C539.702454,646.347229 546.983154,649.413269 554.200073,646.054932 
	C555.537537,645.432556 556.720154,644.348694 558.858643,644.897217 
	C560.216370,650.756592 561.743530,656.828247 563.003601,662.954834 
	C563.948303,667.548279 565.975769,671.655090 569.444824,674.557190 
	C582.841309,685.765076 597.108032,694.475464 615.914490,691.735718 
	C628.223083,689.942627 640.026123,686.500183 651.363525,681.819458 
	C661.807678,677.507507 666.673340,668.345215 667.604736,657.316589 
	C667.903259,653.781250 668.389954,650.489136 669.735718,647.174561 
	C674.249817,636.056519 674.442078,624.509033 672.798035,612.785095 
	C672.376282,609.777832 669.795654,608.497925 668.523071,606.226990 
	C663.878113,597.938477 660.206543,589.202515 656.736938,580.376831 
	C656.369873,579.443176 655.960754,577.893677 656.965637,577.706726 
	C660.085632,577.126282 663.234375,575.897522 666.621765,576.657104 
	C667.746094,570.283691 676.282104,571.762451 678.466309,565.919495 
	C682.418152,568.134033 682.779480,571.519531 681.981750,574.739990 
	C680.180420,582.012085 681.377136,589.737488 678.405334,596.810364 
	C677.661865,598.579834 678.653503,600.105469 679.975403,601.231262 
	C684.422668,605.018738 684.158936,609.314880 681.166565,613.672424 
	C678.646790,617.341797 678.486877,621.126038 679.920105,625.084106 
	C682.005737,630.844055 681.826477,636.540710 679.604431,642.163330 
	C678.268921,645.542664 678.063660,648.813965 678.880615,652.402954 
	C680.311768,658.689758 680.245789,665.017029 677.221558,670.924561 
	C675.896606,673.512695 676.768982,675.948120 677.527527,678.185730 
	C679.559753,684.180786 678.647278,689.815735 675.690430,695.050903 
	C669.679565,705.693542 662.045532,713.919617 648.683228,715.542419 
	C642.430298,716.301819 636.472595,719.654236 630.008179,720.493286 
	C616.761536,722.212708 603.410583,723.645691 590.504700,719.218262 
	C586.071777,717.697571 581.136719,716.547974 577.497620,712.754456 
	C576.305176,711.511475 573.375610,712.138489 571.518738,711.296570 
	C559.475891,705.835815 549.863281,697.670410 543.919250,685.628174 
	C541.928894,681.595764 540.065552,677.500488 537.951050,673.126953 
M556.137573,665.537659 
	C553.063416,665.812134 550.791321,664.824707 549.138000,661.982849 
	C548.018066,660.057983 546.454773,658.097778 543.617249,658.642700 
	C542.086975,660.575134 543.023621,662.609497 543.368774,664.447021 
	C544.195007,668.845276 546.351196,669.965027 550.593689,668.162292 
	C552.910217,667.177979 553.943542,668.310242 555.091492,669.908081 
	C558.615723,674.813354 561.146362,680.087708 562.850098,685.964355 
	C564.749512,692.515625 565.188049,692.382507 558.572937,691.558960 
	C558.369873,691.533691 558.112122,691.947205 557.782593,692.243652 
	C558.310181,695.445068 560.616089,697.467590 563.073181,699.075195 
	C569.075928,703.002686 575.601624,705.891479 582.437073,708.109375 
	C585.652100,709.152588 588.360168,708.715027 590.493652,706.040466 
	C592.599854,703.400024 595.382996,702.840881 598.528503,703.061829 
	C606.624451,703.630554 614.803406,702.841431 622.830261,704.587097 
	C624.661438,704.985352 626.806885,705.155518 628.084595,703.786743 
	C632.728088,698.812317 639.498108,698.981140 645.193848,696.975098 
	C653.509827,694.046265 659.069641,687.730896 666.039978,683.230225 
	C666.930847,682.654968 667.516174,681.420227 667.952454,680.370239 
	C668.648804,678.694336 669.586243,676.615234 667.884033,675.274292 
	C665.807190,673.638245 664.530396,675.863892 663.469910,677.142944 
	C660.147278,681.150696 656.394958,684.345520 651.702454,686.893860 
	C641.935059,692.198242 631.358887,694.049683 620.642395,695.412476 
	C601.544678,697.841125 584.499817,693.551331 570.158325,679.902893 
	C565.439758,675.412292 561.645630,670.111938 556.137573,665.537659 
M522.488220,645.840271 
	C527.357788,645.041870 526.074890,641.330872 525.668518,638.442688 
	C525.352905,636.199341 523.270447,634.960266 521.146240,635.943176 
	C518.517029,637.159790 515.011841,638.367126 514.788208,641.631775 
	C514.536072,645.313232 518.469543,644.591736 520.722900,645.561890 
	C521.021057,645.690247 521.368591,645.703796 522.488220,645.840271 
M538.545593,659.198914 
	C536.516968,651.875061 533.924561,649.352295 528.281921,649.483582 
	C528.834900,650.930298 529.461304,652.269348 529.851807,653.674011 
	C530.249451,655.104187 530.219910,656.668945 530.717346,658.052612 
	C532.425476,662.804199 535.225891,663.428162 538.545593,659.198914 
M476.284271,609.691162 
	C477.878143,609.289734 479.677246,608.992737 479.350616,606.734192 
	C479.174011,605.512939 478.154663,604.775879 476.970215,604.569519 
	C475.252472,604.270203 474.141083,605.278564 473.580292,606.736023 
	C472.894073,608.519409 473.712921,609.526978 476.284271,609.691162 
z"/>
<path fill="#000000" opacity="1.000000" stroke="none" 
	d="
M678.528381,163.576843 
	C683.083374,162.361130 686.396179,159.171997 691.641479,158.183624 
	C689.067871,164.814590 685.814026,170.363297 681.080688,174.600662 
	C677.133545,178.134186 671.531250,176.732178 666.706970,176.818054 
	C660.327209,176.931595 654.324036,174.781052 648.674866,171.616745 
	C627.989685,160.030075 605.654724,154.188141 582.102783,152.162704 
	C555.512024,149.875900 529.350647,152.562088 503.111084,156.721146 
	C489.677429,158.850418 476.029816,159.655197 462.685181,162.675247 
	C431.063873,169.831573 402.300110,183.275406 375.576599,201.448776 
	C363.991364,209.327332 352.937592,217.844131 341.987793,226.577652 
	C329.907074,236.213181 317.113770,244.952454 300.026215,247.765167 
	C306.985199,250.873306 312.905670,249.515106 320.114868,249.222351 
	C306.689941,259.187592 293.301880,265.291901 276.272522,265.541046 
	C284.636963,269.616638 292.130859,270.758331 299.940063,270.510712 
	C300.058350,270.935120 300.176605,271.359528 300.294891,271.783936 
	C295.689545,273.820557 291.201019,276.197693 286.455414,277.825470 
	C275.370331,281.627838 263.912384,282.356049 252.453842,280.080322 
	C246.512939,278.900421 242.372284,274.804047 239.092194,268.772308 
	C249.726456,270.007507 259.669647,270.627197 270.231323,268.510223 
	C266.242462,264.698730 261.810455,262.502045 258.204559,257.191010 
	C269.191132,259.870117 278.818970,258.912628 288.983521,254.963333 
	C284.574951,253.357574 280.512573,252.397217 277.776398,249.267578 
	C275.192413,246.312042 272.645325,243.217590 274.613708,238.186096 
	C277.766418,241.352783 280.925690,243.653259 285.404541,243.036377 
	C285.905121,241.970657 283.508179,241.807999 284.554169,240.075974 
	C292.024994,239.656082 299.489380,237.658798 306.705292,234.649734 
	C321.991882,228.275192 334.640228,217.966583 347.386566,207.735168 
	C369.981506,189.598389 394.627655,174.811966 421.380219,163.660980 
	C439.439941,156.133347 458.165802,150.342377 477.611023,148.405334 
	C508.998718,145.278687 539.952698,137.678802 571.871033,139.728592 
	C599.111145,141.477951 625.280518,146.831345 649.682617,159.488358 
	C652.489075,160.944000 655.396973,162.212418 658.296875,163.478058 
	C664.873779,166.348587 671.502197,166.648773 678.528381,163.576843 
z"/>
<path fill="#000000" opacity="1.000000" stroke="none" 
	d="
M542.463989,434.413269 
	C547.883545,426.075409 555.711304,422.319611 564.875671,421.995850 
	C572.652954,421.721130 580.461060,421.543121 588.140381,420.562958 
	C592.968689,419.946716 597.757751,417.919830 602.228516,415.813080 
	C615.378479,409.616364 627.226135,411.865326 638.525452,420.306335 
	C648.203735,427.536316 656.928528,435.334717 662.690979,446.420746 
	C666.180847,453.134644 665.801697,459.558685 664.767700,466.235596 
	C663.951660,471.505737 663.228821,476.699158 663.628174,482.038391 
	C663.789917,484.201538 662.806946,486.234039 662.365173,488.324707 
	C661.355408,493.103760 658.147522,497.425537 659.587830,502.787048 
	C659.938232,504.091217 659.117920,506.702026 658.083923,507.224945 
	C651.361267,510.624542 656.064941,512.965576 658.927002,515.337036 
	C657.047241,516.835205 655.714661,513.735596 653.817993,515.612671 
	C656.239807,519.656799 660.521118,520.413452 664.861877,521.419434 
	C661.380676,523.659790 657.478210,523.311646 653.873779,519.402832 
	C650.700073,515.961060 648.163391,516.350281 644.885864,518.701294 
	C642.735657,520.243713 640.526672,522.124451 638.064819,522.743469 
	C622.909851,526.554016 619.188354,538.068787 618.249817,551.507996 
	C617.883240,556.758057 618.601501,562.203613 614.661926,567.020081 
	C611.172729,563.643860 608.345825,560.328857 607.576172,555.381836 
	C606.358521,547.555176 602.183838,541.165771 596.774780,535.529480 
	C594.310547,532.961670 591.136475,532.929749 587.933289,533.089233 
	C578.175842,533.574951 568.606934,533.364014 560.062500,527.529541 
	C556.995850,525.435547 554.271606,523.132874 551.966125,520.208008 
	C548.470703,515.773560 544.900452,511.458618 540.065979,508.229706 
	C535.385681,505.103851 533.382996,499.913635 530.677795,495.093536 
	C527.483154,489.401215 527.359253,483.963593 527.778503,477.956635 
	C528.006470,474.691071 527.236938,471.404358 525.908325,468.248535 
	C523.383789,462.251923 524.863342,457.255524 529.968384,453.270081 
	C532.743835,451.103333 532.743835,451.103333 531.864624,447.059448 
	C537.895142,445.108246 537.854004,438.032196 542.463989,434.413269 
M606.695068,541.794312 
	C609.335693,536.383545 607.780212,530.757751 607.228638,525.297913 
	C605.757202,510.733521 603.845764,496.214050 602.218628,481.664520 
	C601.980774,479.537354 601.518005,477.173737 603.653809,474.594299 
	C609.310425,496.127045 610.564575,517.737000 614.967041,538.729614 
	C616.860962,538.460388 616.963135,537.262451 617.291077,536.414185 
	C620.788940,527.364502 626.611084,520.993225 636.233032,518.004272 
	C641.609924,516.333923 645.329956,512.092834 647.989807,507.002533 
	C652.109802,499.117889 654.400757,490.408966 659.118042,482.786896 
	C660.547241,480.477692 661.693359,477.817200 659.749695,474.596680 
	C657.075439,476.653595 654.823730,478.598206 652.360596,480.222046 
	C649.728760,481.957123 646.983215,483.571655 644.134644,484.914948 
	C638.717102,487.469849 625.491455,484.941376 621.305298,480.735657 
	C620.096375,479.521149 619.208801,478.080872 619.017944,476.387268 
	C618.366150,470.604980 619.025085,465.019958 622.427612,460.124359 
	C626.853333,453.756409 636.860596,453.703522 640.472473,460.496063 
	C640.064880,460.735291 639.466370,461.040924 638.915771,461.416718 
	C632.954956,465.485321 632.757935,469.446014 638.403687,473.667206 
	C641.580078,476.042114 645.175171,476.260437 648.870300,475.110748 
	C656.033752,472.881927 660.812012,463.748199 659.371582,455.675079 
	C658.321045,449.786987 655.127197,444.802979 652.352661,439.831238 
	C649.166931,434.122711 644.981384,428.778412 639.012207,423.908997 
	C639.579102,426.978607 642.165283,427.609436 642.170715,430.608002 
	C636.167175,424.394287 629.481506,420.988129 621.559326,420.173401 
	C621.066345,420.122681 620.253052,420.122223 620.143005,419.863068 
	C617.934448,414.661621 613.927795,417.645294 610.622803,417.792999 
	C606.768738,417.965240 604.153015,421.009583 600.783020,422.427185 
	C591.722961,426.238342 582.263428,425.864258 572.787964,426.293365 
	C558.787781,426.927368 547.325012,432.248413 540.538086,445.355774 
	C537.636841,450.958893 535.016296,456.689178 531.338745,461.912842 
	C528.532715,465.898590 529.756592,473.927307 533.174316,477.844910 
	C534.410034,479.261444 535.396484,480.693909 535.964600,482.484711 
	C539.185120,492.635498 548.704590,496.589172 558.933716,493.539429 
	C566.281677,491.348663 568.265320,485.125793 571.842346,480.080353 
	C575.797546,474.501587 574.387085,471.685699 567.927795,470.750671 
	C572.045410,466.210358 577.951782,465.399597 581.723633,469.323700 
	C586.699951,474.500854 588.939270,480.818909 587.945801,488.081482 
	C587.712036,489.790375 587.178894,491.685577 585.307739,491.933807 
	C581.711243,492.410980 579.394226,494.883667 576.775085,496.839783 
	C565.602051,505.184204 548.799133,504.302246 539.166077,493.320831 
	C537.680176,491.626923 536.311340,489.696075 533.842163,489.137146 
	C532.410156,495.299561 534.668030,500.264740 540.920959,504.227020 
	C546.918396,508.027405 553.086548,511.277466 557.330505,517.533630 
	C563.665771,526.872620 573.260498,529.558105 584.121887,528.272034 
	C590.996155,527.458069 596.562439,529.645203 600.838867,535.102722 
	C602.574585,537.317871 604.335205,539.513489 606.695068,541.794312 
z"/>
<path fill="#000000" opacity="1.000000" stroke="none" 
	d="
M446.606079,303.838593 
	C450.576935,307.916870 452.263428,312.552338 453.117859,317.854980 
	C454.004211,323.355591 458.662201,326.953430 461.262787,332.424194 
	C465.397339,327.744904 469.520538,326.321533 474.359863,330.409271 
	C472.666992,332.478638 469.139465,327.884277 467.640411,332.397217 
	C467.242279,333.595856 465.422821,335.301605 465.512054,337.107269 
	C465.795593,342.845581 463.827026,347.446594 459.266998,351.013458 
	C456.825043,350.047546 458.843964,347.662384 457.641479,345.979675 
	C455.550293,345.884369 453.319672,345.236145 451.056152,346.083344 
	C450.053802,344.125946 453.168304,343.818054 452.149994,341.801117 
	C449.889923,339.657623 447.087677,339.718750 444.095032,340.918854 
	C440.233551,342.467407 436.434448,344.230469 432.469299,345.447906 
	C426.428009,347.302887 420.365021,348.852753 413.910950,346.665039 
	C407.794006,344.591553 407.710632,344.837494 406.980988,350.918274 
	C399.139954,348.440308 391.241547,347.539032 382.989563,350.365662 
	C387.026947,344.461578 385.911255,336.476868 392.001831,330.709930 
	C392.681274,335.249847 390.151489,337.770508 388.719299,341.612854 
	C393.951172,338.071838 397.242706,334.040955 399.770599,329.212830 
	C402.518707,323.964233 404.967590,318.583923 408.741364,313.858765 
	C413.691681,307.660400 420.395905,306.110840 427.640869,305.392914 
	C428.718170,305.286163 429.931702,306.115295 431.115265,304.731140 
	C426.882843,300.853271 421.870850,300.493134 416.755127,301.621368 
	C411.718384,302.732208 407.299744,305.602661 401.951477,307.984711 
	C402.306061,305.005066 404.182617,303.922455 405.636139,302.549164 
	C408.361267,299.974487 413.578247,300.908783 414.763977,296.077301 
	C414.823181,295.836029 416.020966,295.699860 416.644135,295.797821 
	C423.988861,296.952057 431.946747,295.978394 438.028809,301.941559 
	C438.357697,301.238342 438.661957,300.587769 438.977692,299.912659 
	C441.453918,300.751678 442.200073,303.296478 444.023773,304.644958 
	C445.414368,304.033569 443.632874,302.728485 444.698608,302.073761 
	C445.701752,302.063202 445.973297,302.924438 446.606079,303.838593 
M441.247742,321.357147 
	C441.332062,319.646698 440.265015,318.579132 439.032288,317.725800 
	C437.038879,316.345917 434.869476,315.427887 432.669617,317.243561 
	C431.012909,318.610870 430.922791,320.400787 432.107086,322.121918 
	C433.682495,324.411530 435.896637,325.397247 438.552979,324.305939 
	C439.529297,323.904846 440.208771,322.781128 441.247742,321.357147 
M423.600830,340.572144 
	C429.894928,343.549530 435.065277,340.463440 440.125214,337.342926 
	C442.247437,336.034119 442.371124,334.004669 440.676117,330.915649 
	C436.674591,337.863525 430.945374,339.934387 423.972412,339.108643 
	C423.852142,339.094391 423.666016,339.636292 423.600830,340.572144 
M416.208221,323.193909 
	C416.444519,325.059326 417.318817,326.338226 419.377228,326.007507 
	C420.942169,325.756104 421.960938,324.619476 422.403320,323.122437 
	C422.781586,321.842377 422.210297,320.808350 420.969147,320.413147 
	C418.855682,319.740173 417.089020,320.117004 416.208221,323.193909 
M453.588837,331.227264 
	C452.490479,330.096771 452.483063,328.158447 450.321350,327.135712 
	C450.344482,329.588562 448.899323,331.562439 449.724182,334.133392 
	C451.572845,333.983673 453.413239,334.193207 453.588837,331.227264 
M416.521057,338.902313 
	C417.627563,339.441956 418.530334,340.647797 420.890594,339.645874 
	C418.183533,338.187836 417.773712,334.649506 414.183472,334.869873 
	C413.182129,337.174652 414.962524,337.645416 416.521057,338.902313 
z"/>
<path fill="#000000" opacity="1.000000" stroke="none" 
	d="
M831.746460,530.777405 
	C832.322388,533.084106 832.321716,533.094299 830.107056,532.952698 
	C816.520691,532.084290 805.231628,526.161865 795.415771,517.077209 
	C794.726562,516.439270 794.469543,515.334412 793.440125,514.646484 
	C791.148926,525.721313 783.785339,529.107056 773.380859,529.559448 
	C777.835083,536.829285 783.784119,541.671021 789.886475,546.340271 
	C796.331238,551.271423 803.579834,552.782532 811.800476,551.145569 
	C809.166748,554.616211 805.633606,556.607422 801.710632,557.156982 
	C796.575195,557.876343 791.513123,557.234070 786.712952,554.617859 
	C774.049316,547.715881 765.639465,536.407959 763.746277,522.853333 
	C766.543762,522.853333 769.300842,522.900146 772.055664,522.842041 
	C775.841614,522.762207 779.277466,521.697571 782.073242,519.000366 
	C783.202026,517.911438 784.079285,516.683777 783.556885,515.028381 
	C783.020020,513.327576 781.530212,513.767761 780.225159,513.611267 
	C769.885925,512.371521 765.630249,509.748322 761.916748,501.873871 
	C768.204834,506.947174 775.858826,508.170227 783.379089,510.046082 
	C776.027161,506.560089 769.070740,502.779846 765.770081,493.743805 
	C769.918091,495.215057 771.510803,499.468872 776.908813,499.522980 
	C759.805603,468.304840 755.619873,434.347198 749.585510,400.820862 
	C751.976929,400.260803 752.066528,401.080658 752.185303,401.664398 
	C754.774719,414.389038 760.163208,425.973206 766.524841,437.177979 
	C773.032166,448.639221 775.859741,461.344513 778.623901,474.029816 
	C779.810669,479.475861 781.521851,484.815369 784.483337,489.341614 
	C796.289246,507.385101 811.633972,521.603516 831.746460,530.777405 
z"/>
<path fill="#000000" opacity="1.000000" stroke="none" 
	d="
M619.326538,320.689575 
	C615.623230,313.780426 608.621033,310.690704 603.458435,305.618225 
	C602.423340,304.601196 600.915588,304.058899 600.233948,301.974670 
	C603.994873,302.282532 603.267029,298.113556 605.844727,296.747437 
	C608.316101,297.982971 607.996216,300.655792 608.868835,302.649933 
	C609.402954,303.870392 609.675415,305.275696 611.226868,305.607269 
	C612.958984,305.977386 613.784668,304.851501 613.920471,303.424377 
	C614.118286,301.344666 616.325073,302.011627 617.375488,300.531006 
	C614.458313,298.660889 614.966064,296.051636 615.595764,293.131226 
	C617.090393,286.199371 618.200500,279.230042 619.996216,272.311096 
	C621.945801,264.798798 626.385498,259.887482 632.376831,257.809601 
	C639.561340,255.317947 647.881836,253.407623 655.220276,259.960480 
	C643.375183,257.844818 632.931458,259.778778 624.123901,270.440216 
	C634.994202,263.325012 644.566040,266.198669 654.577148,269.615692 
	C659.743042,271.378906 662.826294,274.760071 666.544922,278.087616 
	C671.912415,282.890564 677.136780,287.894318 683.247925,291.556885 
	C682.400513,293.228363 681.439575,293.300201 680.733887,293.044403 
	C675.056885,290.986511 669.391357,293.757416 667.849243,297.730133 
	C665.121094,304.758514 657.868042,306.708282 654.453247,312.863037 
	C649.749512,312.863037 644.887573,312.863037 639.377197,312.863037 
	C641.395325,309.395630 644.411438,308.690674 648.026855,306.687622 
	C638.894287,306.070251 631.040894,305.442810 623.175598,305.062195 
	C620.568665,304.936066 617.265564,304.894073 616.671753,308.239777 
	C616.138367,311.244843 619.410095,311.264648 621.247742,312.509583 
	C624.755737,314.886169 627.871765,317.841370 631.935303,321.206238 
	C627.934204,321.210175 626.238464,317.633850 623.091492,318.091461 
	C622.176147,321.832855 626.169922,323.537415 626.482239,327.259247 
	C623.174316,325.762726 620.359924,324.460266 619.326538,320.689575 
M630.364258,284.696259 
	C631.294922,282.484344 630.522095,280.836426 628.578674,279.693024 
	C627.330200,278.958527 625.987427,279.116455 624.872803,279.993774 
	C623.127197,281.367767 621.386963,283.097015 622.965820,285.375824 
	C625.121460,288.487091 627.652466,287.672699 630.364258,284.696259 
M622.822632,293.859985 
	C619.918213,293.034241 620.105164,294.881500 620.697021,296.571075 
	C622.055359,300.448608 624.817993,301.468231 629.485352,299.102966 
	C627.448242,297.477448 625.411133,295.851898 622.822632,293.859985 
M644.860596,290.106049 
	C647.566711,288.326080 646.617493,286.636902 644.656677,285.097504 
	C643.573364,284.247009 642.297729,284.436707 641.767273,285.674225 
	C640.736511,288.079163 641.425415,289.813995 644.860596,290.106049 
M636.460815,301.176819 
	C639.687683,301.195435 643.091675,301.633270 645.184204,297.566681 
	C641.180603,296.625336 638.912781,298.872894 636.460815,301.176819 
z"/>
<path fill="#000000" opacity="1.000000" stroke="none" 
	d="
M188.610504,419.627502 
	C200.050430,409.664093 209.024414,398.277252 215.230392,384.352570 
	C209.545135,387.508911 203.971085,389.088623 196.565552,385.754700 
	C205.723572,383.174164 208.913483,376.568237 212.808731,370.114471 
	C217.608612,362.161835 225.964813,357.295441 231.754868,350.098816 
	C232.629410,350.880615 233.074646,351.095886 233.069778,351.300415 
	C232.771149,363.811371 234.095566,376.137238 235.996170,388.521210 
	C237.497345,398.302643 234.198532,407.594604 228.920288,416.010345 
	C227.765015,417.852356 226.499344,419.607544 223.067764,420.422821 
	C232.464874,407.050385 233.066483,393.772125 225.096695,378.733246 
	C219.369186,393.157104 213.062424,405.837250 203.092117,417.068787 
	C208.454300,418.441498 211.076675,414.062256 215.925293,413.679535 
	C214.617188,419.346436 212.614212,424.267700 210.108765,429.015717 
	C205.596603,437.566650 201.439484,446.268982 199.051971,455.689270 
	C197.161850,463.147125 197.917480,470.933075 196.382675,478.442841 
	C196.227127,479.203949 196.024323,479.955383 195.685822,481.370056 
	C182.335236,461.625214 187.710480,443.750549 199.756592,425.822784 
	C190.811371,427.643616 182.918701,430.219452 174.122528,429.809540 
	C178.861725,426.491791 183.600906,423.174042 188.610504,419.627502 
z"/>
<path fill="#000000" opacity="1.000000" stroke="none" 
	d="
M787.982056,587.977844 
	C783.900024,575.377258 776.477234,565.253113 768.291260,555.200012 
	C774.132751,557.027344 780.093140,558.361816 784.644958,562.376404 
	C796.968384,573.245178 812.001404,605.122864 801.528137,629.390869 
	C800.673645,631.370850 799.736755,633.332825 798.645813,635.190186 
	C791.735291,646.956055 791.987732,651.030701 800.633301,661.725037 
	C797.059448,663.949341 793.591797,662.570740 790.313416,661.484802 
	C787.592041,660.583191 784.831238,660.002441 782.117798,659.319641 
	C769.604797,656.170654 758.215881,650.830200 752.468689,638.008789 
	C752.225342,637.465942 752.222168,636.815430 751.998596,635.648621 
	C754.781555,636.617004 755.838745,638.823669 757.531433,640.191833 
	C766.272217,647.257019 771.319031,647.014343 775.763245,636.356934 
	C780.122131,625.904358 782.522522,615.132141 780.167236,603.740112 
	C780.077454,603.305969 780.299133,602.807495 780.574097,601.126160 
	C788.120300,612.539612 789.497375,624.063721 788.000671,636.285156 
	C796.175354,620.353638 793.833923,604.363098 787.982056,587.977844 
z"/>
<path fill="#000000" opacity="1.000000" stroke="none" 
	d="
M770.126709,788.000366 
	C772.008972,773.590881 770.937683,759.968811 764.274658,747.262207 
	C762.269836,743.438843 762.131958,740.226074 763.775391,736.059814 
	C770.474121,719.078186 771.630188,701.817810 764.727417,684.493835 
	C764.237915,683.265442 763.891479,681.976135 763.549927,680.696106 
	C763.484375,680.450256 763.753601,680.115051 763.869263,679.818970 
	C773.851379,685.352356 779.447998,697.750549 781.696777,719.286743 
	C784.455383,716.499512 786.397705,710.094116 786.789612,702.928101 
	C787.569336,688.670166 783.695862,675.957581 774.522156,664.895691 
	C772.901306,662.941284 770.620483,661.235840 770.609863,658.331482 
	C771.624146,657.552307 772.363708,658.121887 772.936279,658.655273 
	C784.759155,669.670837 794.634216,681.916016 795.702271,698.888672 
	C796.278992,708.053162 794.504822,716.799744 787.900696,723.911987 
	C782.138306,730.117676 783.171814,735.629639 790.776123,739.687805 
	C791.500244,740.074280 792.349182,740.284973 792.457153,741.294312 
	C785.692383,745.707336 781.924438,744.163879 772.426941,732.984314 
	C770.557861,734.650879 771.455688,736.187195 772.517334,737.717529 
	C780.307678,748.948303 782.409119,761.597107 781.207153,774.849487 
	C780.476868,782.901917 776.048401,789.375977 770.781494,795.673462 
	C768.186829,793.115417 770.137207,790.668457 770.126709,788.000366 
z"/>
<path fill="#000000" opacity="1.000000" stroke="none" 
	d="
M343.652618,506.210938 
	C341.157043,482.812561 336.293304,460.477753 327.021912,439.212280 
	C325.055939,434.703033 323.583038,429.939331 323.493164,424.869324 
	C333.496613,447.456238 348.696442,468.143494 347.849792,494.050232 
	C350.636200,495.432434 350.839478,492.124084 353.036469,492.724426 
	C353.678162,522.628357 362.112274,549.052734 388.395752,567.128235 
	C379.503662,565.070435 372.616119,559.623596 364.206573,554.037842 
	C366.593201,571.179626 368.598816,587.448608 359.835388,602.657166 
	C358.920593,596.815002 358.395599,590.979858 357.453918,585.202759 
	C354.428436,566.641541 348.934967,548.579590 346.360596,529.939209 
	C345.292389,522.204651 344.552307,514.424805 343.652618,506.210938 
z"/>
<path fill="#000000" opacity="1.000000" stroke="none" 
	d="
M836.426575,293.072021 
	C822.831177,296.666016 816.532593,295.711273 798.836182,287.097656 
	C812.433228,285.633789 824.463257,283.325195 835.257996,276.468201 
	C814.363586,277.254883 796.697327,264.592499 776.299438,263.079987 
	C780.832336,260.371979 785.867126,259.158173 790.769226,258.437317 
	C805.862183,256.217896 821.029053,254.464951 836.199402,252.828827 
	C841.205078,252.288971 845.924744,253.931580 850.328064,257.362274 
	C841.395020,257.312775 833.542969,260.017670 825.731873,265.617493 
	C836.294312,267.385712 845.884949,268.649445 854.157837,260.580444 
	C855.835632,272.733978 839.671204,284.939575 816.400330,289.571564 
	C822.236145,291.458588 827.734009,290.366852 833.099548,290.850098 
	C834.447144,290.971436 837.068604,289.517303 836.426575,293.072021 
z"/>
<path fill="#000000" opacity="1.000000" stroke="none" 
	d="
M736.050293,388.205475 
	C736.015564,394.707550 736.284912,400.732361 737.281372,406.746552 
	C736.475830,406.865204 735.670349,406.983856 734.864868,407.102509 
	C725.858032,373.660767 719.493103,339.592316 711.964966,305.786530 
	C722.517761,327.192322 736.438599,347.602112 731.000488,373.556549 
	C733.749451,370.894562 735.615234,359.769012 735.805420,348.569580 
	C735.952515,339.907104 736.516418,331.203522 735.388367,322.599945 
	C734.254883,313.955261 731.023010,305.895538 727.330139,298.006653 
	C723.711060,290.275543 718.401489,283.374054 716.093689,275.002014 
	C728.368652,292.356415 744.149719,307.934967 744.737183,331.310791 
	C742.411438,331.698456 743.752869,329.020416 741.309265,328.688324 
	C742.454285,348.703064 738.538696,368.141632 736.050293,388.205475 
z"/>
<path fill="#000000" opacity="1.000000" stroke="none" 
	d="
M240.875992,315.085358 
	C231.919556,325.601013 225.545746,337.082977 221.341232,349.976166 
	C218.970551,357.245880 214.850281,363.890717 209.761581,369.895782 
	C208.464447,352.489197 211.291016,336.236633 221.891327,321.747406 
	C216.332611,320.556763 210.858215,320.356903 206.415466,315.565704 
	C207.020172,315.298096 207.472534,314.910889 207.900864,314.935822 
	C217.242050,315.480408 223.869705,310.498718 230.199921,304.470001 
	C235.251785,299.658752 240.435577,294.979858 245.864349,290.543884 
	C253.698151,284.142700 261.380066,284.207733 270.178986,289.905182 
	C256.990417,295.088135 246.417068,303.637177 235.458923,313.510773 
	C238.444321,312.546570 240.423569,311.907349 242.417130,311.263489 
	C243.361359,313.214600 241.674820,313.790436 240.875992,315.085358 
z"/>
<path fill="#000000" opacity="1.000000" stroke="none" 
	d="
M626.923157,665.084351 
	C626.249451,665.617493 625.863464,665.990784 625.405090,666.136536 
	C623.254578,666.820129 621.784729,668.017334 622.366150,670.494812 
	C622.985840,673.135193 625.235596,672.868958 627.211365,672.903931 
	C630.068542,672.954529 632.783691,672.432190 635.479431,671.332947 
	C639.388306,669.739075 643.440796,668.497620 647.876099,666.951050 
	C647.241882,669.380066 645.794617,670.001648 644.488586,670.579224 
	C637.205017,673.800415 630.032288,677.298157 621.863770,677.926025 
	C617.106995,678.291626 616.456665,677.705017 618.087463,673.254028 
	C619.482117,669.447510 618.218933,666.980469 614.459473,666.168091 
	C606.717285,664.495239 601.102905,652.914917 604.601135,645.773804 
	C605.697876,643.535095 606.999268,641.394226 608.044617,639.133545 
	C609.557190,635.862244 610.294434,632.421021 608.620544,629.012634 
	C603.853699,619.306519 601.265503,608.662720 595.557861,599.339111 
	C593.391663,595.800598 590.493530,592.858093 588.023010,589.236877 
	C590.766968,587.207520 593.490295,585.829529 597.270630,585.047729 
	C598.185608,590.179138 599.469055,595.064087 601.176758,599.841858 
	C604.991333,610.514282 609.084290,621.050476 614.189148,631.181091 
	C615.413757,633.611389 616.842102,635.831970 619.298279,637.151428 
	C623.964905,639.658264 627.105469,643.866455 630.487366,647.660034 
	C635.467834,653.246643 635.043945,656.478271 629.834045,661.840027 
	C628.907654,662.793457 628.061035,663.824463 626.923157,665.084351 
z"/>
<path fill="#000000" opacity="1.000000" stroke="none" 
	d="
M811.461060,370.788879 
	C815.971252,374.525238 815.328247,380.442078 818.075439,385.443909 
	C820.151733,381.267517 820.948669,377.009491 821.591248,372.783813 
	C822.237549,368.533813 823.203552,364.280579 822.591614,359.899536 
	C821.979126,355.514984 821.221375,351.165405 820.077393,346.773285 
	C826.672180,351.260071 829.746826,357.614197 830.300720,365.272003 
	C830.911377,373.716309 829.176086,381.806580 826.226257,389.681091 
	C820.251160,405.631165 826.528687,419.254913 834.671448,432.351776 
	C836.886841,435.914948 840.921509,437.621704 845.164673,438.440643 
	C842.147095,443.734070 836.286682,445.269989 831.677673,442.045074 
	C823.121338,436.058167 817.940247,427.582367 815.097046,417.789825 
	C810.649475,402.470825 810.245972,386.724792 811.461060,370.788879 
z"/>
<path fill="#000000" opacity="1.000000" stroke="none" 
	d="
M531.916199,847.228027 
	C531.128601,846.386292 530.416870,845.850647 530.679565,844.864258 
	C531.471130,843.747620 532.450867,844.274536 533.342834,844.621887 
	C545.185608,849.234131 556.435425,854.955566 566.560364,862.709045 
	C572.469238,867.234131 577.219910,872.815735 580.294617,879.599792 
	C584.678955,889.273743 578.438293,900.325012 568.096924,900.422791 
	C572.971313,893.331177 573.023560,886.545776 566.727478,879.062317 
	C566.450256,888.031494 563.296997,894.385620 555.940552,898.175659 
	C552.907104,899.738586 549.879272,900.411499 546.526611,899.728943 
	C546.461121,897.362305 548.271790,897.065125 549.341248,896.216003 
	C557.844910,889.464539 558.863403,874.518982 551.887024,867.146301 
	C545.487671,860.383423 539.667053,853.105957 531.916199,847.228027 
z"/>
<path fill="#000000" opacity="1.000000" stroke="none" 
	d="
M783.737793,237.574707 
	C787.913330,233.568756 791.598999,229.579102 795.246887,224.638184 
	C785.999695,228.241333 779.016907,234.738403 769.910522,237.856049 
	C775.920166,220.464035 801.896790,209.301163 822.897583,212.440613 
	C818.084534,215.328201 813.520630,216.871399 809.973328,219.984756 
	C806.336975,223.176285 803.322815,226.834305 800.271729,231.754166 
	C812.250732,233.884369 824.555054,231.475891 835.132874,238.344025 
	C825.673523,237.889786 817.395874,242.273239 808.544373,243.851089 
	C805.136597,244.458527 801.213562,242.199829 797.530029,241.229034 
	C792.221375,239.829956 786.780701,240.970367 781.442261,241.130936 
	C781.347534,238.897934 782.800964,238.655502 783.737793,237.574707 
z"/>
<path fill="#000000" opacity="1.000000" stroke="none" 
	d="
M715.435181,850.141479 
	C734.269897,836.627930 744.438721,818.204041 748.968018,796.134094 
	C750.988831,786.287659 752.077209,776.446350 751.726440,766.419983 
	C751.676270,764.985352 751.378479,763.457581 752.612366,761.574097 
	C758.038147,767.072144 760.344421,773.681519 761.030151,780.758728 
	C764.079285,812.229858 742.978088,843.337280 715.648376,852.839905 
	C715.230164,852.985352 714.717163,852.858093 714.298340,852.858093 
	C713.406372,851.502136 714.494629,851.000977 715.435181,850.141479 
z"/>
<path fill="#000000" opacity="1.000000" stroke="none" 
	d="
M833.174805,326.841919 
	C825.466980,316.661835 815.016663,310.665100 802.914612,304.906464 
	C809.238403,303.073364 814.426331,304.251953 819.392639,302.884399 
	C825.241577,301.273834 830.802185,299.368439 835.710022,295.707458 
	C838.255310,293.808777 841.142700,292.381622 844.285645,291.841553 
	C850.524170,290.769592 855.459045,294.948914 856.019409,302.393250 
	C848.044861,297.874207 841.516418,301.107056 834.888550,305.925873 
	C839.601379,309.063812 844.245056,311.495392 850.910828,309.562653 
	C847.707214,315.654694 842.221313,314.933319 837.329834,316.639038 
	C844.440918,324.780609 849.309265,333.669708 847.864319,345.967773 
	C842.554871,339.092316 836.797974,334.041840 833.174805,326.841919 
z"/>
<path fill="#000000" opacity="1.000000" stroke="none" 
	d="
M510.698364,868.897827 
	C512.055298,869.545349 513.287292,869.773865 513.756348,871.055664 
	C513.613403,871.312988 513.465637,871.814453 513.315979,871.815063 
	C497.122162,871.879456 480.718353,875.183899 464.887390,869.254395 
	C451.998871,864.426941 440.626434,857.448914 433.615601,845.004333 
	C429.941437,838.482544 429.327881,830.228821 431.991455,825.650513 
	C434.067230,826.173828 434.430939,828.161194 435.338989,829.645142 
	C448.196167,850.656250 465.768677,864.060120 491.384033,864.848022 
	C497.877655,865.047729 504.269257,866.309509 510.698364,868.897827 
z"/>
<path fill="#000000" opacity="1.000000" stroke="none" 
	d="
M822.870422,506.914795 
	C821.438049,498.529449 823.341248,491.004364 826.006042,483.597046 
	C828.999390,475.276154 831.627869,466.935394 830.873962,457.859741 
	C830.583435,454.362610 829.298828,451.118835 828.807251,447.696136 
	C835.828308,446.593384 838.438965,448.799042 839.460510,455.303101 
	C841.556335,468.645569 839.984985,481.496979 834.953613,493.927246 
	C830.474915,504.991913 831.998779,515.365356 837.840515,525.438354 
	C838.529541,526.626343 840.068787,527.531372 839.391174,529.809265 
	C828.633850,525.986145 825.476440,516.889404 822.870422,506.914795 
z"/>
<path fill="#000000" opacity="1.000000" stroke="none" 
	d="
M579.947021,762.018188 
	C574.167847,747.638794 563.650574,736.567383 555.212463,723.747498 
	C563.105408,721.865051 574.243225,726.680237 578.437744,733.077209 
	C589.373901,749.755737 594.360474,768.046021 593.045593,787.992432 
	C592.962341,789.255737 593.256470,790.705444 591.323242,791.919312 
	C588.196899,781.708557 585.698853,771.407166 579.947021,762.018188 
z"/>
<path fill="#000000" opacity="1.000000" stroke="none" 
	d="
M480.348755,599.561279 
	C478.700928,596.460083 477.313354,593.629944 475.825745,590.853455 
	C474.258636,587.928650 474.776367,585.423340 477.177338,583.252747 
	C479.856842,580.830505 481.977631,577.148926 486.328033,581.782104 
	C487.598114,583.134827 489.518097,585.522827 492.831787,584.817932 
	C491.043213,588.923584 487.051514,590.054993 485.762543,593.399170 
	C486.603485,594.014954 487.006226,593.268860 487.436768,592.886414 
	C495.005493,586.163391 494.983032,586.190918 503.150208,591.032349 
	C504.629700,591.909363 504.771851,593.101807 504.394531,594.417419 
	C501.475861,604.593933 505.175903,613.692139 508.910919,622.797119 
	C509.159454,623.402893 509.343781,624.047302 509.454865,624.691528 
	C509.503906,624.976013 509.295013,625.304993 509.198547,625.612427 
	C505.611237,625.581970 486.174927,608.096741 480.348755,599.561279 
z"/>
<path fill="#000000" opacity="1.000000" stroke="none" 
	d="
M758.698120,203.983490 
	C765.995789,190.295197 779.116150,181.921677 789.999207,184.784866 
	C781.489746,189.522614 777.614319,197.001480 774.138916,205.613831 
	C785.957031,200.528091 797.618469,199.127472 809.879150,203.184311 
	C787.923767,204.975250 770.540222,217.766342 751.361450,226.702164 
	C754.209412,222.523605 758.085754,219.509247 760.511414,215.234665 
	C762.977905,210.887970 764.810913,206.421188 765.916992,201.215607 
	C763.176392,201.772690 762.245178,203.760284 760.661560,204.858093 
	C759.770081,205.476120 758.876465,205.985123 758.698120,203.983490 
z"/>
<path fill="#000000" opacity="1.000000" stroke="none" 
	d="
M330.593567,411.418152 
	C329.856171,407.017700 329.864014,403.129761 331.562286,398.949524 
	C334.395203,401.182098 333.061127,405.374908 336.315613,407.329590 
	C344.400177,392.151123 336.663269,377.080963 336.231049,361.593079 
	C339.402863,362.716553 339.625519,365.085175 340.278839,366.949554 
	C344.551270,379.141846 345.283417,391.781372 343.669983,404.420471 
	C341.840302,418.753967 343.127533,432.975494 343.849487,447.242188 
	C344.079590,451.789398 344.590973,456.331543 343.315704,460.942444 
	C335.812714,445.399780 331.960693,428.962769 330.593567,411.418152 
z"/>
<path fill="#000000" opacity="1.000000" stroke="none" 
	d="
M754.368713,191.209381 
	C754.431152,205.601715 747.625854,214.073486 733.717346,215.677887 
	C743.765686,208.707733 748.238892,200.019394 747.780457,187.240051 
	C743.573120,195.838028 737.489807,199.969711 729.771729,201.534622 
	C722.194641,203.070953 714.694336,201.634613 706.936523,199.602432 
	C709.585632,198.649536 712.373962,197.966797 714.854919,196.687744 
	C720.088501,193.989548 724.967896,191.194702 731.101562,189.953217 
	C739.294861,188.294830 742.684570,181.240143 742.640686,171.416580 
	C747.551453,178.297287 754.514954,182.214554 754.368713,191.209381 
z"/>
<path fill="#000000" opacity="1.000000" stroke="none" 
	d="
M814.073975,331.951233 
	C810.449951,328.130981 807.048584,324.588470 803.287048,320.670898 
	C832.942139,323.018951 846.063599,347.586182 837.695801,373.390717 
	C833.785522,356.594543 821.450256,345.965057 814.073975,331.951233 
z"/>
<path fill="#000000" opacity="1.000000" stroke="none" 
	d="
M694.461365,187.716644 
	C690.012939,186.399033 685.728027,185.690536 681.751526,181.722351 
	C691.017883,179.906937 697.657959,174.195709 705.260071,170.622513 
	C706.669434,172.265442 705.470642,173.088150 704.965698,174.028320 
	C704.426575,175.031998 703.849792,176.015442 703.065796,177.403732 
	C708.997070,179.218674 714.236633,178.078629 719.568848,176.136185 
	C725.304810,174.046661 728.782104,170.073151 729.950989,163.528839 
	C736.180176,171.308212 735.127686,178.883514 727.843628,183.536713 
	C717.558838,190.106873 706.485352,191.272659 694.461365,187.716644 
z"/>
<path fill="#000000" opacity="1.000000" stroke="none" 
	d="
M708.459106,839.645386 
	C715.797791,835.924133 717.891968,828.828552 720.913269,822.259338 
	C728.173340,835.319031 703.838562,863.731445 683.413696,865.146973 
	C690.909485,858.760010 698.586792,853.793884 703.706726,845.664673 
	C694.959229,847.279114 686.395691,848.414673 677.993347,845.805664 
	C670.106018,843.356628 661.936340,841.190063 656.626038,833.856689 
	C673.217346,841.690796 690.014038,846.291931 708.459106,839.645386 
z"/>
<path fill="#000000" opacity="1.000000" stroke="none" 
	d="
M470.030090,578.679932 
	C473.310669,587.110413 468.993225,593.839233 466.199585,601.175720 
	C465.164948,591.732666 457.152466,587.544312 452.038696,581.263062 
	C449.456055,578.090759 448.859833,575.683350 452.971680,573.363525 
	C457.703308,570.693970 462.269806,567.733093 466.953400,564.975830 
	C468.097168,564.302490 469.444366,563.815369 470.671875,564.903931 
	C471.934113,566.023193 472.195618,567.409790 471.573212,568.980347 
	C470.392883,571.958618 469.756592,575.032471 470.030090,578.679932 
z"/>
<path fill="#000000" opacity="1.000000" stroke="none" 
	d="
M716.501099,548.375000 
	C715.038452,545.106140 715.580261,542.753784 717.011536,539.698608 
	C719.358521,534.688965 717.299377,528.904480 717.817078,523.470398 
	C717.938416,522.196594 717.156006,520.843201 718.155640,519.644165 
	C723.455017,521.471680 729.568115,533.493103 729.063660,541.110107 
	C727.392700,541.828247 726.010437,539.712097 724.133667,540.704956 
	C725.256836,553.243225 730.505310,564.127258 739.273132,573.581055 
	C738.504761,574.034058 737.736328,574.487122 736.967957,574.940125 
	C728.498779,567.624695 720.818298,559.647156 716.501099,548.375000 
z"/>
<path fill="#000000" opacity="1.000000" stroke="none" 
	d="
M412.575867,849.124268 
	C411.064941,845.185730 412.803345,841.520203 413.001770,837.758789 
	C413.603912,826.345337 411.388458,815.645142 406.257111,805.492737 
	C405.888489,804.763306 405.399994,804.064392 406.333008,802.397583 
	C414.643860,807.776917 421.543945,813.994690 423.227264,824.265564 
	C424.920776,834.598694 422.141510,843.297607 412.575867,849.124268 
z"/>
<path fill="#000000" opacity="1.000000" stroke="none" 
	d="
M447.024841,569.987244 
	C445.484924,570.426819 444.145508,570.409546 443.117493,568.848694 
	C441.202087,565.940552 439.251678,563.068298 438.000183,559.781921 
	C437.039246,557.258728 437.605560,555.299133 439.811920,553.713257 
	C444.435150,550.390076 449.420166,547.825134 454.968872,546.484802 
	C458.806396,545.557800 461.009338,547.818298 460.154327,551.698364 
	C459.352356,555.337891 457.662292,558.424622 454.865051,561.000732 
	C452.079498,563.566101 449.074585,565.976868 447.086792,569.687988 
	C447.002991,570.004639 447.024841,569.987244 447.024841,569.987244 
z"/>
<path fill="#000000" opacity="1.000000" stroke="none" 
	d="
M344.548889,612.539612 
	C348.220978,608.235718 350.537659,603.490234 352.990997,598.689392 
	C361.967621,610.262329 344.380768,632.760071 322.808624,636.796570 
	C332.273407,630.775330 337.244385,620.889465 344.548889,612.539612 
z"/>
<path fill="#000000" opacity="1.000000" stroke="none" 
	d="
M696.720398,250.348511 
	C694.812744,245.151566 691.292908,241.629181 687.697327,238.149384 
	C686.312012,236.808685 684.482666,235.589722 685.582947,232.866013 
	C688.115540,232.293274 689.352051,234.270584 690.700012,235.775833 
	C700.341187,246.541733 705.599182,259.289703 706.971008,273.552124 
	C707.838318,282.568848 706.425415,291.733276 709.289185,301.276764 
	C705.751099,300.286804 705.426147,297.937775 705.115356,296.057617 
	C703.281860,284.963623 701.561340,273.848877 699.989563,262.714783 
	C699.403503,258.563477 698.354980,254.591064 696.720398,250.348511 
z"/>
<path fill="#000000" opacity="1.000000" stroke="none" 
	d="
M650.078796,532.993286 
	C648.870605,531.032166 647.781067,529.402344 646.691528,527.772522 
	C646.943115,527.382812 647.194702,526.993164 647.446289,526.603455 
	C651.888916,534.165649 661.586792,532.855225 667.625671,539.873047 
	C662.591370,539.772949 659.506287,536.047913 655.230164,536.592773 
	C656.110596,539.406921 659.699219,539.338013 660.226624,542.072205 
	C659.143005,543.554443 657.640869,541.510864 656.420654,542.742737 
	C657.254700,543.689514 658.097107,544.645813 658.955200,545.619934 
	C658.580383,545.879272 658.241943,546.223511 658.144470,546.165161 
	C651.920105,542.438110 646.070557,537.814514 638.190552,538.164734 
	C637.615540,538.190247 636.991150,537.630432 636.429565,537.278992 
	C635.911194,536.954651 635.446472,536.544678 634.793945,536.047241 
	C638.901001,534.740234 642.464905,534.808777 646.235779,536.476746 
	C648.246765,537.366272 651.317078,537.429993 650.078796,532.993286 
z"/>
<path fill="#000000" opacity="1.000000" stroke="none" 
	d="
M315.533112,359.368469 
	C308.718750,353.386993 301.391205,350.134827 292.419464,351.686462 
	C287.057068,352.613861 282.628723,354.763489 280.020447,359.836700 
	C279.599213,360.656006 279.265594,361.770416 277.976624,361.772644 
	C278.413208,355.435333 285.552399,348.877197 293.197357,347.969543 
	C300.872986,347.058289 308.075500,348.437897 314.705902,352.625000 
	C316.855713,353.982666 318.144592,355.803406 318.579926,358.158722 
	C319.158936,361.291138 317.539734,360.659088 315.533112,359.368469 
z"/>
<path fill="#000000" opacity="1.000000" stroke="none" 
	d="
M442.784637,537.742798 
	C438.647247,543.149475 437.827576,549.527161 435.854889,556.266724 
	C432.173370,553.340210 429.472961,550.472534 429.549042,546.593689 
	C429.636414,542.136414 437.817749,535.149597 443.336212,533.916443 
	C444.667999,535.228271 443.565979,536.314270 442.784637,537.742798 
z"/>
<path fill="#000000" opacity="1.000000" stroke="none" 
	d="
M419.139099,519.036743 
	C420.732971,520.495117 422.105652,521.688782 423.405426,522.957214 
	C428.429871,527.860413 427.512421,531.810730 420.881622,534.125977 
	C419.647797,534.556824 418.731232,534.521301 417.763550,533.503662 
	C414.853119,530.443115 413.487061,520.199219 415.552673,516.098694 
	C417.367340,516.127502 417.627594,518.091370 419.139099,519.036743 
z"/>
<path fill="#000000" opacity="1.000000" stroke="none" 
	d="
M449.142639,547.205811 
	C445.845703,548.707031 442.898224,550.065613 438.883270,551.916321 
	C440.087982,546.074219 441.459137,541.286316 445.114349,537.678955 
	C447.297699,535.524231 456.306732,539.096252 457.096375,542.085938 
	C457.566589,543.866272 456.270630,544.439026 455.049133,544.951416 
	C453.222839,545.717468 451.346893,546.365173 449.142639,547.205811 
z"/>
<path fill="#000000" opacity="1.000000" stroke="none" 
	d="
M312.492798,378.798981 
	C314.100006,374.041779 315.534119,369.637115 319.546936,366.687775 
	C323.799683,373.493683 315.258423,391.616241 304.894562,396.408875 
	C308.740356,390.553497 312.747559,385.705383 312.492798,378.798981 
z"/>
<path fill="#000000" opacity="1.000000" stroke="none" 
	d="
M729.504639,516.716797 
	C729.443176,521.295654 729.425476,525.495789 730.466858,529.772583 
	C728.055969,523.216431 722.801025,519.062073 718.550354,514.132202 
	C716.529297,511.788177 716.141418,509.185608 718.145813,505.943481 
	C723.166138,508.276794 727.737427,510.631653 729.504639,516.716797 
z"/>
<path fill="#000000" opacity="1.000000" stroke="none" 
	d="
M464.161255,316.299072 
	C464.881470,315.359314 465.397583,314.541534 465.860077,313.808716 
	C468.077026,315.773499 466.196411,317.308258 466.894348,318.624146 
	C468.368652,318.914764 468.682770,316.488007 470.338501,317.279907 
	C470.820404,319.401855 467.980652,319.969513 468.178192,322.343048 
	C470.049194,321.712341 471.818512,321.115936 473.587799,320.519501 
	C471.457581,323.651489 468.248322,326.165436 465.296234,323.665649 
	C462.602356,321.384430 457.764801,323.114197 457.266418,320.428650 
	C456.573090,316.692810 456.572113,312.311462 458.479065,308.224426 
	C460.946564,309.732849 459.393127,312.297699 460.457672,314.182129 
	C461.221893,312.518555 461.942566,310.949707 462.739929,309.213989 
	C465.605438,311.487854 461.981293,314.362701 464.161255,316.299072 
z"/>
<path fill="#000000" opacity="1.000000" stroke="none" 
	d="
M446.995239,570.016418 
	C450.928711,567.268677 453.289612,562.287720 459.016632,561.896179 
	C460.008820,561.828308 460.624542,559.121399 461.793152,558.044983 
	C463.265472,556.688843 465.246674,555.542786 466.945007,557.739197 
	C468.365173,559.575745 467.569672,561.342957 465.732391,562.311951 
	C459.325134,565.691101 454.448425,571.358154 447.847351,574.330200 
	C445.703400,573.461792 446.244720,572.031006 446.919128,570.290283 
	C447.024841,569.987244 447.002991,570.004639 446.995239,570.016418 
z"/>
<path fill="#000000" opacity="1.000000" stroke="none" 
	d="
M700.008911,471.860168 
	C700.398865,469.087219 700.670532,466.609863 702.913574,464.728668 
	C706.364319,466.060608 707.039307,469.279510 707.701172,472.189606 
	C708.238220,474.551117 708.250488,477.033173 708.839661,479.447662 
	C709.274109,481.227875 710.019958,483.818604 707.316711,484.415253 
	C705.256042,484.870117 702.708496,484.300690 702.092896,481.776306 
	C701.617371,479.826172 699.789307,477.300873 702.992981,475.766083 
	C703.520447,475.513397 704.356567,475.753052 704.471985,474.757263 
	C703.062683,473.847534 700.764832,474.389313 700.008911,471.860168 
z"/>
<path fill="#000000" opacity="1.000000" stroke="none" 
	d="
M431.855164,539.763306 
	C430.496735,541.207642 430.115509,543.066101 427.730255,543.846680 
	C426.055756,541.029907 421.342865,539.422607 423.765289,534.745178 
	C425.160461,532.051331 431.737579,531.237244 433.783508,533.263123 
	C436.622833,536.074707 432.988342,537.485657 431.855164,539.763306 
z"/>
<path fill="#000000" opacity="1.000000" stroke="none" 
	d="
M689.471375,554.432129 
	C689.728210,552.765930 688.124451,550.381958 690.767090,550.244446 
	C693.156250,550.120117 693.477539,552.668030 692.973328,554.331482 
	C692.167969,556.988281 692.246155,560.158752 688.907471,561.679871 
	C686.376160,562.833191 687.052124,566.535278 684.507996,568.325195 
	C682.190918,567.136536 681.056519,564.738342 681.941772,562.758118 
	C683.443115,559.399658 685.201172,555.805542 689.471375,554.432129 
z"/>
<path fill="#000000" opacity="1.000000" stroke="none" 
	d="
M536.936279,598.224060 
	C544.847290,598.222839 552.429626,597.218018 559.888184,599.207397 
	C552.553223,601.323608 545.231934,602.890381 537.677185,601.528992 
	C535.993652,601.225647 534.223694,600.348022 536.936279,598.224060 
z"/>
<path fill="#000000" opacity="1.000000" stroke="none" 
	d="
M563.210693,566.553406 
	C561.676147,565.351379 560.859985,565.478516 559.877991,567.248291 
	C558.054199,570.535339 556.141541,573.827759 552.936035,576.417725 
	C553.085815,572.087463 561.966736,557.522522 565.779724,555.392761 
	C566.040466,559.432434 564.637146,562.911133 563.210693,566.553406 
z"/>
<path fill="#000000" opacity="1.000000" stroke="none" 
	d="
M470.991577,578.652954 
	C470.786926,575.164612 471.702759,572.531921 473.899750,570.402649 
	C480.933929,574.444275 480.710449,577.440247 473.347229,582.480103 
	C471.554413,582.029785 471.414246,580.459045 470.991577,578.652954 
z"/>
<path fill="#000000" opacity="1.000000" stroke="none" 
	d="
M570.021362,563.963623 
	C569.025269,557.837158 571.094604,551.912354 568.086975,546.392639 
	C570.387451,544.963684 571.613892,545.986511 571.788269,547.887451 
	C572.605530,556.797302 572.001160,565.693298 571.337952,574.611389 
	C568.937988,571.405701 570.283875,567.839905 570.021362,563.963623 
z"/>
<path fill="#000000" opacity="1.000000" stroke="none" 
	d="
M414.957825,353.503723 
	C424.127869,353.701080 432.517548,351.072266 440.734894,348.836884 
	C441.747406,349.649506 441.346191,350.578033 440.917450,350.658661 
	C432.386108,352.262512 424.582123,357.955383 415.281067,355.272736 
	C414.234253,354.970825 413.836792,354.568573 414.957825,353.503723 
z"/>
<path fill="#000000" opacity="1.000000" stroke="none" 
	d="
M558.525085,554.410522 
	C556.149658,559.084412 552.897278,562.476013 548.593079,565.034363 
	C551.541626,558.754272 555.815430,553.287537 558.631470,546.332031 
	C562.184814,549.833679 559.477783,551.880920 558.525085,554.410522 
z"/>
<path fill="#000000" opacity="1.000000" stroke="none" 
	d="
M651.788696,525.796936 
	C650.681702,525.390564 649.833191,525.155762 649.868774,523.614746 
	C657.144043,523.168030 663.781982,526.382874 672.099670,526.755127 
	C668.211365,529.759521 665.216370,529.158630 662.310242,528.328369 
	C658.951904,527.368835 655.660339,526.178589 651.788696,525.796936 
z"/>
<path fill="#000000" opacity="1.000000" stroke="none" 
	d="
M696.032166,537.039185 
	C697.022339,534.785645 697.863342,532.874817 698.740112,530.882874 
	C702.053528,533.419373 701.257019,537.593140 696.411133,545.016052 
	C692.709412,542.684448 694.732544,539.998596 696.032166,537.039185 
z"/>
<path fill="#000000" opacity="1.000000" stroke="none" 
	d="
M644.133545,543.885742 
	C642.485840,539.850098 644.888062,540.874817 646.536621,541.687317 
	C651.094971,543.933899 654.420105,547.502869 657.461975,552.836975 
	C652.078857,550.262817 647.659912,548.091553 644.133545,543.885742 
z"/>
<path fill="#000000" opacity="1.000000" stroke="none" 
	d="
M709.146240,491.454712 
	C708.746887,494.253601 710.453003,498.270691 707.193237,498.524841 
	C703.641724,498.801727 705.110596,494.498322 704.378296,492.248566 
	C703.879761,490.716827 702.807556,488.344482 705.283203,487.633759 
	C707.686768,486.943604 708.696838,488.905579 709.146240,491.454712 
z"/>
<path fill="#000000" opacity="1.000000" stroke="none" 
	d="
M550.453247,552.474548 
	C547.537292,554.538696 544.873535,556.348328 542.209717,558.157959 
	C546.126648,552.522583 551.560059,548.658691 555.953247,543.660400 
	C555.744751,547.574707 552.753296,549.594910 550.453247,552.474548 
z"/>
<path fill="#000000" opacity="1.000000" stroke="none" 
	d="
M639.763428,546.018677 
	C636.399963,544.909119 633.685059,543.603577 633.481018,539.395020 
	C638.829712,539.537964 641.257507,543.241760 644.268494,546.787354 
	C642.412292,547.879150 641.393311,546.056152 639.763428,546.018677 
z"/>
<path fill="#000000" opacity="1.000000" stroke="none" 
	d="
M630.898560,558.026611 
	C631.180786,559.594971 631.785278,560.839539 630.767639,562.553650 
	C628.119141,558.966187 625.896362,555.653870 624.764282,551.454407 
	C628.820007,552.481628 628.923340,552.593262 630.898560,558.026611 
z"/>
<path fill="#000000" opacity="1.000000" stroke="none" 
	d="
M543.253662,545.194946 
	C544.879517,543.521240 546.247131,542.071655 547.667114,540.675354 
	C548.244873,540.107178 548.936462,539.654663 549.933228,539.505737 
	C548.179932,544.434082 544.752197,547.756409 539.640869,550.196838 
	C540.188904,547.728271 541.905273,546.811523 543.253662,545.194946 
z"/>
<path fill="#000000" opacity="1.000000" stroke="none" 
	d="
M734.790649,538.134827 
	C735.560242,540.811218 737.406250,543.059631 736.162720,545.855591 
	C732.430664,544.076355 731.826477,540.507812 734.790649,538.134827 
z"/>
<path fill="#000000" opacity="1.000000" stroke="none" 
	d="
M577.134766,576.791687 
	C577.068848,578.130005 577.335571,579.187439 576.008362,580.149963 
	C573.572754,577.301636 573.204468,574.408569 574.987183,570.939392 
	C577.463257,572.377991 576.872681,574.547668 577.134766,576.791687 
z"/>
<path fill="#000000" opacity="1.000000" stroke="none" 
	d="
M638.743408,560.542603 
	C637.013184,560.990112 631.764343,557.384583 632.002319,556.061218 
	C632.364807,554.045776 633.764343,554.326599 635.004639,555.057678 
	C636.968506,556.215271 637.785583,558.277161 638.743408,560.542603 
z"/>
<path fill="#000000" opacity="1.000000" stroke="none" 
	d="
M653.427002,567.078491 
	C652.312134,564.750671 651.345764,562.705017 650.379395,560.659363 
	C654.162598,562.111877 655.233154,565.085327 655.680908,568.551025 
	C654.299622,568.840332 653.989624,568.026733 653.427002,567.078491 
z"/>
<path fill="#000000" opacity="1.000000" stroke="none" 
	d="
M628.354736,582.953857 
	C627.560791,581.053040 627.656799,579.576782 629.807312,579.543945 
	C631.060791,579.524841 632.044861,580.679382 631.872314,581.908936 
	C631.582642,583.973328 630.173462,584.079712 628.354736,582.953857 
z"/>
<path fill="#000000" opacity="1.000000" stroke="none" 
	d="
M580.188843,553.826477 
	C579.890564,556.333069 578.935852,557.012390 577.640442,554.909546 
	C576.732300,553.435364 576.356140,551.619751 577.931396,550.070679 
	C579.825928,550.535095 579.779724,552.150208 580.188843,553.826477 
z"/>
<path fill="#000000" opacity="1.000000" stroke="none" 
	d="
M576.679199,696.007141 
	C578.204041,697.646545 579.324036,699.203979 577.934875,701.592896 
	C575.360413,700.104797 573.489380,698.724182 576.679199,696.007141 
z"/>
</svg>