<svg width="1024" height="1024" viewBox="0 0 1024 1024" fill="none" xmlns="http://www.w3.org/2000/svg">
<path d="M233.68 554.662C235.592 530.34 226.778 509.809 213.808 490.642C204.178 476.411 194.687 462.121 188.699 445.867C176.603 413.034 182.722 382.844 202.973 355.298C218.656 333.965 236.55 314.361 252.957 293.565C263.369 280.367 277.112 271.173 293.408 266.324C301.214 264 309.103 261.929 317.019 260.01C336.92 255.186 354.501 245.523 371.495 234.49C394.305 219.681 418.774 208.593 445.325 202.33C472.209 195.987 499.526 193.591 527.037 194.852C572.942 196.956 615.789 209.41 654.783 234.277C668.535 243.047 682.241 252.048 698.211 256.521C705.57 258.582 712.921 260.743 720.388 262.33C747.008 267.984 767.479 282.539 782.986 304.624C793.439 319.512 806.103 332.618 817.418 346.815C827.245 359.144 835.571 372.329 840.17 387.578C847.635 412.334 843.884 435.866 832.5 458.617C825.688 472.23 816.602 484.417 808.593 497.278C797.727 514.728 792.161 533.595 793.402 554.189C793.772 560.325 795.059 566.478 793.914 572.565C791.225 586.869 780.159 595.591 765.215 596.351C751.749 597.035 739.538 593.505 728.03 586.857C726.766 586.126 725.702 584.931 723.574 584.967C724.874 591.432 727.407 597.328 729.846 603.24C736.448 619.243 743.739 635.006 748.123 651.816C756.308 683.197 747.918 710.642 727.681 735.096C716.522 748.581 703.277 759.646 688.254 768.574C685.212 770.381 682.312 772.645 678.335 769.37C676.115 767.542 673.826 770.448 671.954 771.931C659.964 781.432 646.744 788.758 632.429 794.039C617.088 799.698 601.083 802.916 585.162 806.434C563.084 811.313 541.984 818.9 522.228 829.978C517.122 832.841 511.984 833.293 506.978 830.55C479.619 815.564 449.816 808.056 419.664 801.455C395.947 796.263 373.989 787.054 354.787 771.841C352.305 769.875 349.599 767.146 346.276 771.014C345.282 772.171 343.719 771.623 342.55 770.933C311.96 752.869 286.882 729.955 277.879 693.975C272.407 672.11 277.308 651.016 285.479 630.597C290.736 617.458 296.667 604.587 301.218 591.166C301.841 589.328 302.311 587.438 302.85 585.577C300.41 584.58 299.28 586.116 297.963 586.935C286.572 594.022 274.199 597.235 260.814 596.227C241.046 594.739 229.682 579.25 233.082 558.576C233.271 557.428 233.47 556.282 233.68 554.662ZM753.667 302.812C744.62 293.075 733.271 287.123 720.512 284.459C692.909 278.696 667.616 268.107 644.336 252.03C627.979 240.733 609.907 232.401 590.747 226.752C575.238 222.181 559.393 219.594 543.278 217.979C520.647 215.711 498.122 215.742 475.582 218.485C439.218 222.912 405.909 235.424 375.581 256.046C357.083 268.625 336.882 277.427 314.97 282.305C305.719 284.364 296.518 286.799 288.124 291.468C278.625 296.752 270.977 304.094 264.753 312.917C250.809 332.682 233.658 349.887 219.602 369.55C209.677 383.434 203.335 398.654 204.334 416.081C205.14 430.138 209.825 443.112 217.033 455.114C224.666 467.823 232.788 480.24 240.374 492.977C252.751 513.76 258.574 536.079 255.057 560.358C253.424 571.633 258.722 576.709 269.932 574.298C286.645 570.704 298.863 560.539 308.762 547.207C321.064 530.637 323.706 511.159 324.655 491.397C325.567 472.391 322.766 453.555 320.421 434.762C317.47 411.119 315.394 387.5 317.648 363.667C319.893 339.919 330.086 320.05 346.926 303.467C349.849 300.589 352.952 297.567 357.437 296.477C357.395 297.269 357.475 297.64 357.344 297.91C356.766 299.107 356.129 300.276 355.511 301.453C345.35 320.812 340.67 341.71 339.433 363.278C337.788 391.962 341.42 420.403 345.551 448.706C348.733 470.504 350.737 492.259 348.313 514.253C347.945 517.598 348.367 520.854 349.373 524.107C351.881 532.218 354.376 540.339 356.572 548.537C363.247 573.45 363.685 598.143 353.462 622.362C352.552 624.516 352.083 627.015 349.181 628.27C347.57 609.909 346.879 591.794 340.107 574.604C336.547 585.599 331.898 595.88 326.953 606.059C319.537 621.326 311.448 636.286 306.746 652.765C300.545 674.5 302.384 695.257 313.651 714.939C318.316 723.09 323.574 730.872 331.395 737.536C332.149 725.335 334.175 714.274 340.137 704.17C341.004 704.724 341.447 704.845 341.525 705.084C341.93 706.334 342.288 707.603 342.581 708.884C348.859 736.375 364.036 756.909 389.753 769.179C400.352 774.236 411.705 776.976 423.05 779.625C452.779 786.565 482.149 794.54 509.501 808.541C512.539 810.096 515.137 809.692 517.997 808.21C531.042 801.45 544.717 796.231 558.602 791.458C577.853 784.841 597.876 781.218 617.445 775.843C652.75 766.146 676.286 745.116 683.58 708.135C683.827 706.883 683.625 705.378 685.687 704.605C692.033 714.309 693.303 725.576 694.862 737.642C710.342 721.878 720.88 704.735 722.719 683.285C724.44 663.213 718.259 644.812 709.836 627.004C702.012 610.461 692.938 594.469 687.873 576.718C687.579 575.687 687.385 574.368 685.484 574.199C679.783 591.437 679.124 609.563 677.252 628.776C675.774 626.937 675.289 626.488 674.989 625.938C664.835 607.317 663.094 587.393 666.251 566.852C668.506 552.183 672.565 537.929 677.46 523.93C678.824 520.029 679.146 516.059 678.596 512.108C676.511 497.141 677.64 482.18 679.004 467.301C681.216 443.165 685.365 419.256 687.033 395.015C688.666 371.278 686.412 348.228 679.596 325.529C676.543 315.363 672.314 305.669 667.332 296.168C669.803 295.349 670.845 297.016 672.065 297.917C697.74 316.886 708.503 343.497 710.118 374.289C711.552 401.635 706.833 428.639 703.932 455.711C701.796 475.65 700.839 495.587 704.594 515.327C708.309 534.854 716.992 551.817 733.536 563.956C740.788 569.277 748.705 572.925 757.551 574.5C766.831 576.153 772.004 571.849 771.777 562.552C771.595 555.071 770.617 547.569 770.98 540.124C771.878 521.743 778.436 505.164 788.056 489.613C796.206 476.439 805.148 463.737 812.317 449.977C818.622 437.876 822.898 424.934 822.459 411.263C821.961 395.755 815.974 381.708 806.868 369.25C790.255 346.521 771.161 325.759 753.667 302.812Z" fill="black"/>
<path d="M391.657 510.967C397.893 513.06 399.752 518.206 401.112 523.365C403.739 533.325 405.73 543.453 408.383 553.405C411.308 564.383 415.229 574.929 422.456 584.036C432.959 597.273 446.92 600.292 462.71 598.381C470.168 597.479 476.655 594.09 482.917 590.214C489.581 586.089 496.29 582.059 503.73 579.447C505.654 578.771 506.817 577.683 506.797 575.471C506.732 568.306 506.703 561.141 506.75 553.977C506.775 550.283 504.103 549.84 501.443 549.256C482.956 545.198 468.528 535.261 458.333 519.299C439.668 490.073 451.558 458.666 485.157 450.46C505.076 445.595 525.512 445.816 545.406 451.25C575.383 459.438 585.169 489.444 571.479 514.874C561.731 532.983 546.735 544.752 526.481 549.16C521.663 550.208 519.79 552.183 520.175 557.183C520.62 562.981 520.303 568.84 520.28 574.672C520.272 576.606 520.448 578.218 522.749 578.951C531.265 581.664 538.424 586.983 546.088 591.331C557.319 597.703 569.326 600.619 582.098 598.1C596.385 595.283 605.1 585.581 611.267 573.026C617.053 561.248 620.086 548.651 622.697 535.913C623.767 530.692 624.872 525.472 626.902 520.532C627.777 518.401 628.865 516.242 630.329 514.491C634.637 509.337 639.342 509.683 642.831 515.459C647.493 523.176 647.473 531.53 645.675 540.065C643.77 549.106 640.257 557.59 636.141 565.751C624.583 588.666 616.973 612.794 612.158 637.966C610.271 647.837 606.004 656.963 598.583 664.22C594.797 667.922 595.887 672.961 595.42 677.39C593.066 699.708 584.823 718.867 566.738 732.976C554.944 742.177 541.182 746.762 526.573 747.978C509.755 749.378 492.94 748.685 476.982 742.014C452.831 731.917 439.495 713.075 433.816 688.2C432.638 683.041 431.432 677.84 431.405 672.467C431.382 668.041 428.754 665.084 425.984 661.816C418.45 652.927 415.004 641.894 413.108 630.758C409.036 606.827 400.08 584.735 389.795 563.011C385.949 554.887 382.577 546.559 380.525 537.743C378.787 530.275 379.847 523.231 383.112 516.408C384.759 512.968 387.309 510.891 391.657 510.967ZM452.266 659.488C451.899 667.667 452.614 675.77 454.344 683.752C458.523 703.034 468.898 717.191 488.275 723.394C503.478 728.26 518.871 728.892 534.451 724.822C554.811 719.503 567.711 707.079 572.877 686.46C576.495 672.016 575.579 657.39 575.67 642.788C575.784 624.533 572.734 620.182 554.712 617.833C539.014 615.786 524.754 621.175 520.138 638.39C518.586 644.18 517.491 650.049 516.127 655.866C515.294 659.422 516.036 663.446 513.493 666.664C511.663 665.542 511.979 663.928 511.742 662.493C510.119 652.667 508.967 642.722 505.105 633.42C501.495 624.725 494.642 620.27 485.503 619.353C481.546 618.956 477.442 618.786 473.533 619.368C459.624 621.438 451.993 625.184 452.252 642.004C452.337 647.499 452.266 652.996 452.266 659.488ZM472.862 508.352C471.701 509.139 469.902 509.219 469.681 511.681C473.948 514.806 478.629 516.514 484.215 515.022C488.818 513.792 492.45 511.505 493.699 506.584C494.709 502.604 494.577 498.618 490.342 496.761C486.483 495.07 483.243 496.875 481.105 500.426C479.191 503.605 476.891 506.37 472.862 508.352ZM547.247 515.509C548.708 515.199 550.199 514.99 551.62 514.55C553.208 514.059 554.963 513.414 555.374 511.633C555.844 509.593 554.079 508.729 552.611 508.015C548.837 506.18 546.457 503.114 544.524 499.526C542.988 496.673 540.409 495.63 537.359 496.52C534.447 497.37 533.409 499.733 533.211 502.646C532.717 509.9 537.124 514.244 547.247 515.509Z" fill="black"/>
<path d="M643.596 372.579C640.835 371.379 638.828 371.43 637.474 374.197C630.366 388.719 611.723 396.123 593.51 388.045C592.354 387.533 591.2 386.641 589.389 387.55C591.873 397.278 596.399 406.325 600.189 416.744C596.382 415.267 594.204 413.001 591.928 411.063C579.348 400.349 568.415 388.219 562.975 372.31C555.455 350.324 564.537 333.935 585.089 325.179C586.131 324.735 587.246 324.199 588.817 325.36C583.158 335.082 578.584 345.306 578.133 358.354C589.328 338.33 604.786 330.661 625.658 338.534C640.758 344.229 653.939 363.364 652.99 376.917C649.874 375.474 646.901 374.096 643.596 372.579ZM618.298 356.811C613.974 360.216 613.119 363.051 615.723 365.682C617.649 367.628 619.989 368.229 622.503 366.957C624.781 365.805 626.165 363.759 625.454 361.279C624.586 358.249 622.622 356.06 618.298 356.811Z" fill="black"/>
<path d="M449.787 395.747C442.604 403.271 436.019 410.955 425.926 416.582C428.849 405.832 434.791 397.444 436.246 387.045C431.025 388.336 426.495 390.922 421.354 391.271C407.804 392.191 397.274 386.856 390.065 375.548C387.497 371.521 385.208 370.795 381.332 373.238C379.117 374.633 376.642 375.614 374.199 376.823C372.526 366.929 383.886 345.014 401.865 338.112C414.607 333.22 433.423 333.857 447.375 356.657C448.547 350.568 446.907 345.316 445.178 340.061C443.467 334.859 440.747 330.109 438.256 325.141C441.692 323.902 444.01 325.958 446.426 327.179C463.188 335.646 470.142 352.593 464.286 370.454C461.234 379.766 456.09 387.886 449.787 395.747ZM426.98 365.233C428.129 362.788 428.295 360.308 426.295 358.318C423.932 355.966 420.964 355.202 418.287 357.589C415.557 360.023 415.413 363.175 417.762 366.02C420.652 369.521 423.691 369.008 426.98 365.233Z" fill="black"/>
<path d="M526.245 709.609C523.811 717.7 520.021 721.281 514.108 721.35C508.458 721.416 503.286 716.824 501.175 709.975C499.264 703.778 498.736 697.57 500.875 691.33C502.435 686.781 505.249 683.472 510.24 682.639C515.644 681.737 519.67 684.381 522.792 688.3C527.771 694.55 527.745 701.83 526.245 709.609Z" fill="black"/>
</svg>
